<?xml version="1.0" standalone="no"?>
<!DOCTYPE svg PUBLIC "-//W3C//DTD SVG 20010904//EN"
 "http://www.w3.org/TR/2001/REC-SVG-20010904/DTD/svg10.dtd">
<svg version="1.0" xmlns="http://www.w3.org/2000/svg"
 width="500.000000pt" height="500.000000pt" viewBox="0 0 500.000000 500.000000"
 preserveAspectRatio="xMidYMid meet">

<g transform="translate(0.000000,500.000000) scale(0.100000,-0.100000)"
fill="#000000" stroke="none">
<path d="M0 2500 l0 -2500 2500 0 2500 0 0 2500 0 2500 -2500 0 -2500 0 0
-2500z m2609 1520 c93 -47 164 -141 207 -274 21 -64 28 -108 32 -208 l5 -127
51 -17 c93 -29 106 -37 100 -57 -5 -16 -3 -17 14 -8 35 19 37 12 7 -19 l-30
-31 43 23 c27 14 45 19 50 13 4 -6 21 -17 37 -25 17 -8 66 -51 110 -95 134
-133 210 -312 222 -526 10 -185 -24 -262 -144 -321 -65 -32 -72 -33 -183 -32
-104 0 -123 4 -201 33 -47 17 -116 49 -153 71 -38 22 -71 40 -75 40 -3 0 -23
-18 -45 -40 -21 -22 -44 -40 -51 -40 -7 0 -16 -8 -20 -17 -6 -17 -7 -17 -21 1
-13 19 -14 19 -14 -7 0 -43 -16 -31 -27 21 l-10 47 -2 -57 c-1 -42 -5 -58 -15
-58 -8 0 -16 -7 -20 -15 -3 -8 -9 -14 -13 -13 -4 1 -21 -5 -38 -13 -111 -58
-338 -71 -490 -30 -99 27 -246 98 -301 145 -93 79 -110 218 -44 353 45 93 175
221 285 282 44 25 81 46 83 46 1 1 -2 15 -8 30 -6 16 -12 48 -14 71 -2 23 -6
47 -10 52 -4 6 2 15 11 21 17 9 17 10 1 16 -10 4 -18 11 -18 16 0 5 12 4 26
-1 40 -15 42 -12 7 11 -33 21 -43 39 -22 39 9 0 9 4 0 14 -6 7 -9 33 -6 59 12
118 68 258 145 361 74 100 220 220 323 266 59 26 165 26 216 0z m-1384 -1954
c19 -8 35 -17 35 -20 0 -4 -19 -52 -25 -64 -1 -1 -21 5 -45 13 -55 19 -90 19
-90 0 0 -16 38 -38 83 -49 46 -11 77 -49 77 -94 0 -91 -120 -127 -232 -71 -44
22 -43 21 -23 60 l16 29 39 -20 c52 -27 110 -27 110 -1 0 15 -15 24 -62 40
-77 26 -98 45 -98 88 0 44 14 69 48 87 35 19 123 20 167 2z m332 -141 c34 -82
63 -153 63 -157 0 -5 -20 -8 -45 -8 -39 0 -45 3 -51 25 -6 24 -10 25 -79 25
-69 0 -73 -1 -79 -25 -6 -22 -12 -25 -52 -25 -37 0 -45 3 -40 15 3 9 34 81 68
161 l63 145 44 -3 44 -3 64 -150z m181 90 l3 -60 57 63 c56 63 58 64 104 60
l47 -3 -58 -65 -58 -65 58 -87 c33 -48 59 -90 59 -93 0 -3 -22 -5 -49 -5 -49
0 -49 0 -87 59 -36 56 -40 59 -56 44 -12 -11 -18 -31 -18 -60 l0 -43 -45 0
-45 0 0 161 0 160 43 -3 42 -3 3 -60z m332 0 l0 -65 65 0 65 0 0 65 0 65 40 0
40 0 0 -160 0 -160 -40 0 -40 0 0 60 0 60 -65 0 -65 0 0 -60 0 -60 -40 0 -40
0 0 160 0 160 40 0 40 0 0 -65z m527 -90 c34 -82 63 -153 63 -157 0 -5 -20 -8
-45 -8 -39 0 -45 3 -51 25 -6 24 -10 25 -79 25 -69 0 -73 -1 -79 -25 -6 -22
-12 -25 -52 -25 -37 0 -45 3 -40 15 3 9 34 81 68 161 l63 145 44 -3 44 -3 64
-150z m171 78 c12 -43 25 -94 30 -113 8 -33 10 -29 38 78 l29 112 42 0 c40 0
43 -2 52 -37 5 -21 18 -68 27 -105 10 -37 20 -65 24 -62 3 3 16 49 30 102 l25
97 43 3 c23 2 42 0 42 -5 0 -4 -22 -75 -49 -158 l-48 -150 -46 -3 -46 -3 -11
43 c-6 24 -19 70 -29 103 l-17 60 -13 -50 c-7 -27 -19 -74 -27 -103 l-16 -53
-46 3 -46 3 -48 150 c-26 83 -48 153 -48 158 0 4 20 7 44 7 l44 0 20 -77z
m649 -45 c29 -68 59 -140 68 -160 l15 -38 -45 0 c-39 0 -47 4 -57 25 -10 23
-16 25 -78 25 -62 0 -68 -2 -78 -25 -10 -21 -18 -25 -56 -25 l-44 0 55 128
c30 70 61 142 68 160 13 29 18 32 57 32 l44 0 51 -122z m353 87 c0 -35 0 -35
-45 -35 l-45 0 0 -125 0 -125 -45 0 -45 0 0 125 0 125 -45 0 c-45 0 -45 0 -45
35 l0 35 135 0 135 0 0 -35z"/>
<path d="M2487 4019 c104 -20 181 -86 238 -202 47 -96 65 -172 72 -294 4 -74
10 -103 20 -107 7 -3 16 1 20 10 9 24 -6 200 -23 273 -45 198 -174 333 -313
330 l-56 -1 42 -9z"/>
<path d="M2440 3999 c82 -35 130 -63 153 -87 75 -79 142 -244 153 -375 7 -99
12 -117 29 -117 20 0 20 65 1 180 -24 145 -61 233 -129 307 -56 61 -114 93
-178 99 -45 4 -50 3 -29 -7z"/>
<path d="M2399 3964 c30 -8 69 -24 88 -35 104 -64 195 -254 218 -451 5 -43 10
-58 22 -58 14 0 15 11 9 77 -23 283 -164 484 -337 482 l-54 0 54 -15z"/>
<path d="M2366 3931 c63 -21 104 -50 148 -104 65 -80 125 -226 141 -344 5 -36
12 -53 21 -53 20 0 18 58 -6 156 -53 222 -173 365 -305 363 l-50 0 51 -18z"/>
<path d="M2290 3910 c0 -5 8 -10 18 -10 30 0 118 -58 156 -102 63 -72 100
-160 152 -355 2 -7 10 -13 18 -13 17 0 16 14 -11 130 -34 148 -134 300 -225
343 -39 19 -108 23 -108 7z"/>
<path d="M2266 3882 c-3 -5 19 -22 49 -36 98 -49 185 -175 235 -343 14 -46 27
-73 36 -73 18 0 18 12 -5 95 -55 196 -164 338 -278 361 -17 3 -33 2 -37 -4z"/>
<path d="M2240 3837 c0 -6 21 -23 46 -36 25 -14 63 -45 85 -70 41 -46 120
-193 140 -262 16 -53 44 -54 34 -1 -20 108 -92 239 -173 315 -65 59 -132 88
-132 54z"/>
<path d="M2223 3793 c-4 -9 -2 -18 4 -20 5 -2 29 -17 52 -34 54 -41 125 -141
167 -237 18 -42 40 -78 49 -80 19 -4 19 -6 -4 59 -45 132 -122 245 -204 302
-47 32 -55 33 -64 10z"/>
<path d="M2203 3744 c-4 -10 1 -20 11 -26 60 -34 153 -152 197 -252 21 -48 56
-67 44 -23 -29 98 -123 237 -197 290 -42 32 -47 32 -55 11z"/>
<path d="M2190 3690 c0 -11 16 -35 36 -52 40 -36 114 -135 140 -190 11 -24 25
-38 36 -38 36 0 -76 192 -151 258 -45 40 -61 46 -61 22z"/>
<path d="M2180 3627 c0 -13 15 -37 36 -58 19 -18 56 -65 82 -104 25 -38 47
-72 49 -74 2 -3 8 0 14 6 20 20 -100 200 -158 239 -22 14 -23 13 -23 -9z"/>
<path d="M2041 3624 c0 -11 3 -14 6 -6 3 7 2 16 -1 19 -3 4 -6 -2 -5 -13z"/>
<path d="M2111 3604 c0 -11 3 -14 6 -6 3 7 2 16 -1 19 -3 4 -6 -2 -5 -13z"/>
<path d="M2170 3571 c0 -13 25 -55 58 -96 31 -39 62 -79 67 -88 6 -11 15 -14
23 -9 10 7 1 27 -37 83 -27 41 -63 87 -80 103 -30 29 -31 29 -31 7z"/>
<path d="M2170 3492 c0 -11 19 -44 41 -74 58 -74 58 -73 69 -62 8 8 -3 29 -33
70 -24 32 -51 65 -60 73 -15 12 -17 11 -17 -7z"/>
<path d="M2170 3418 c0 -26 46 -88 66 -88 7 0 14 3 14 6 0 7 -72 104 -77 104
-2 0 -3 -10 -3 -22z"/>
<path d="M2580 3370 c0 -5 7 -7 15 -4 8 4 15 8 15 10 0 2 -7 4 -15 4 -8 0 -15
-4 -15 -10z"/>
<path d="M2550 3360 c-9 -6 -10 -10 -3 -10 6 0 15 5 18 10 8 12 4 12 -15 0z"/>
<path d="M2635 3360 c-3 -5 -1 -10 4 -10 6 0 11 5 11 10 0 6 -2 10 -4 10 -3 0
-8 -4 -11 -10z"/>
<path d="M2940 3349 c0 -5 5 -7 10 -4 6 3 10 8 10 11 0 2 -4 4 -10 4 -5 0 -10
-5 -10 -11z"/>
<path d="M1949 3336 c13 -16 51 -41 51 -33 0 2 -15 14 -32 27 -21 15 -28 17
-19 6z"/>
<path d="M2180 3335 c0 -11 4 -27 10 -35 8 -12 10 -12 16 4 4 11 0 24 -10 34
-15 15 -16 15 -16 -3z"/>
<path d="M2375 3340 c-3 -6 1 -7 9 -4 18 7 21 14 7 14 -6 0 -13 -4 -16 -10z"/>
<path d="M2508 3343 c7 -3 16 -2 19 1 4 3 -2 6 -13 5 -11 0 -14 -3 -6 -6z"/>
<path d="M2585 3340 c-3 -5 -2 -10 4 -10 5 0 13 5 16 10 3 6 2 10 -4 10 -5 0
-13 -4 -16 -10z"/>
<path d="M2670 3340 c0 -5 4 -10 9 -10 6 0 13 5 16 10 3 6 -1 10 -9 10 -9 0
-16 -4 -16 -10z"/>
<path d="M2465 3330 c-3 -5 -2 -10 4 -10 5 0 13 5 16 10 3 6 2 10 -4 10 -5 0
-13 -4 -16 -10z"/>
<path d="M2550 3330 c0 -5 5 -10 10 -10 6 0 10 5 10 10 0 6 -4 10 -10 10 -5 0
-10 -4 -10 -10z"/>
<path d="M2637 3333 c-4 -3 -7 -11 -7 -17 0 -6 5 -5 12 2 6 6 9 14 7 17 -3 3
-9 2 -12 -2z"/>
<path d="M2960 3318 c-12 -22 -12 -22 6 -6 10 10 15 20 12 24 -4 3 -12 -5 -18
-18z"/>
<path d="M2717 3323 c-12 -12 -7 -22 8 -17 8 4 15 10 15 15 0 11 -14 12 -23 2z"/>
<path d="M2590 3309 c0 -5 5 -7 10 -4 6 3 10 8 10 11 0 2 -4 4 -10 4 -5 0 -10
-5 -10 -11z"/>
<path d="M2680 3310 c-8 -5 -12 -12 -9 -15 4 -3 12 1 19 10 14 17 11 19 -10 5z"/>
<path d="M2550 3300 c0 -5 5 -10 10 -10 6 0 10 5 10 10 0 6 -4 10 -10 10 -5 0
-10 -4 -10 -10z"/>
<path d="M2515 3290 c-3 -5 -2 -10 4 -10 5 0 13 5 16 10 3 6 2 10 -4 10 -5 0
-13 -4 -16 -10z"/>
<path d="M2630 3290 c0 -5 5 -10 10 -10 6 0 10 5 10 10 0 6 -4 10 -10 10 -5 0
-10 -4 -10 -10z"/>
<path d="M2750 3290 c0 -5 4 -10 9 -10 6 0 13 5 16 10 3 6 -1 10 -9 10 -9 0
-16 -4 -16 -10z"/>
<path d="M2590 3280 c0 -5 5 -10 10 -10 6 0 10 5 10 10 0 6 -4 10 -10 10 -5 0
-10 -4 -10 -10z"/>
<path d="M2710 3280 c0 -5 5 -10 10 -10 6 0 10 5 10 10 0 6 -4 10 -10 10 -5 0
-10 -4 -10 -10z"/>
<path d="M2670 3270 c0 -5 5 -10 10 -10 6 0 10 5 10 10 0 6 -4 10 -10 10 -5 0
-10 -4 -10 -10z"/>
<path d="M2790 3265 c-10 -12 -10 -15 4 -15 9 0 16 7 16 15 0 8 -2 15 -4 15
-2 0 -9 -7 -16 -15z"/>
<path d="M2630 3260 c0 -5 5 -10 10 -10 6 0 10 5 10 10 0 6 -4 10 -10 10 -5 0
-10 -4 -10 -10z"/>
<path d="M2753 3263 c-18 -7 -16 -23 2 -23 8 0 15 7 15 15 0 8 -1 15 -2 14 -2
0 -9 -3 -15 -6z"/>
<path d="M2590 3250 c0 -5 4 -10 9 -10 6 0 13 5 16 10 3 6 -1 10 -9 10 -9 0
-16 -4 -16 -10z"/>
<path d="M2700 3240 c0 -5 4 -10 9 -10 6 0 13 5 16 10 3 6 -1 10 -9 10 -9 0
-16 -4 -16 -10z"/>
<path d="M2635 3230 c-3 -5 -1 -10 4 -10 6 0 11 5 11 10 0 6 -2 10 -4 10 -3 0
-8 -4 -11 -10z"/>
<path d="M2670 3229 c0 -5 5 -7 10 -4 6 3 10 8 10 11 0 2 -4 4 -10 4 -5 0 -10
-5 -10 -11z"/>
<path d="M2820 3230 c0 -5 7 -10 16 -10 8 0 12 5 9 10 -3 6 -10 10 -16 10 -5
0 -9 -4 -9 -10z"/>
<path d="M3098 3233 c6 -2 18 -2 25 0 6 3 1 5 -13 5 -14 0 -19 -2 -12 -5z"/>
<path d="M2780 3220 c0 -5 5 -10 10 -10 6 0 10 5 10 10 0 6 -4 10 -10 10 -5 0
-10 -4 -10 -10z"/>
<path d="M1958 3213 c6 -2 18 -2 25 0 6 3 1 5 -13 5 -14 0 -19 -2 -12 -5z"/>
<path d="M2707 3213 c-4 -3 -7 -11 -7 -17 0 -6 5 -5 12 2 6 6 9 14 7 17 -3 3
-9 2 -12 -2z"/>
<path d="M2740 3210 c0 -5 5 -10 10 -10 6 0 10 5 10 10 0 6 -4 10 -10 10 -5 0
-10 -4 -10 -10z"/>
<path d="M3148 3213 c6 -2 18 -2 25 0 6 3 1 5 -13 5 -14 0 -19 -2 -12 -5z"/>
<path d="M2665 3200 c-3 -5 -1 -10 4 -10 6 0 11 5 11 10 0 6 -2 10 -4 10 -3 0
-8 -4 -11 -10z"/>
<path d="M2828 3203 c-29 -7 -22 -31 7 -25 14 2 25 11 25 18 0 14 -3 15 -32 7z"/>
<path d="M2176 3191 c-3 -4 3 -16 14 -26 18 -16 18 -16 13 4 -6 25 -19 35 -27
22z"/>
<path d="M3118 3193 c6 -2 18 -2 25 0 6 3 1 5 -13 5 -14 0 -19 -2 -12 -5z"/>
<path d="M1945 3180 c3 -5 11 -10 16 -10 6 0 7 5 4 10 -3 6 -11 10 -16 10 -6
0 -7 -4 -4 -10z"/>
<path d="M1998 3183 c7 -3 16 -2 19 1 4 3 -2 6 -13 5 -11 0 -14 -3 -6 -6z"/>
<path d="M2736 3181 c-4 -7 -5 -15 -2 -18 9 -9 19 4 14 18 -4 11 -6 11 -12 0z"/>
<path d="M2770 3180 c0 -5 5 -10 10 -10 6 0 10 5 10 10 0 6 -4 10 -10 10 -5 0
-10 -4 -10 -10z"/>
<path d="M2144 3164 c3 -9 6 -18 6 -20 0 -2 7 -4 15 -4 18 0 19 12 3 28 -17
17 -31 15 -24 -4z"/>
<path d="M2810 3150 c20 -13 40 -13 40 0 0 6 -12 10 -27 10 -22 0 -25 -2 -13
-10z"/>
<path d="M2110 3140 c0 -5 7 -10 16 -10 8 0 12 5 9 10 -3 6 -10 10 -16 10 -5
0 -9 -4 -9 -10z"/>
<path d="M2175 3120 c3 -5 13 -10 21 -10 8 0 12 5 9 10 -3 6 -13 10 -21 10 -8
0 -12 -4 -9 -10z"/>
<path d="M2135 3110 c3 -5 13 -10 21 -10 8 0 12 5 9 10 -3 6 -13 10 -21 10 -8
0 -12 -4 -9 -10z"/>
<path d="M2100 3100 c0 -13 18 -22 24 -11 3 5 -1 11 -9 15 -8 3 -15 1 -15 -4z"/>
<path d="M2205 3090 c3 -5 11 -10 16 -10 6 0 7 5 4 10 -3 6 -11 10 -16 10 -6
0 -7 -4 -4 -10z"/>
<path d="M2170 3080 c0 -5 5 -10 11 -10 5 0 7 5 4 10 -3 6 -8 10 -11 10 -2 0
-4 -4 -4 -10z"/>
<path d="M2930 3074 c0 -11 5 -14 16 -10 9 3 23 6 32 7 14 0 13 2 -3 9 -31 13
-45 11 -45 -6z"/>
<path d="M2135 3060 c3 -5 11 -10 16 -10 6 0 7 5 4 10 -3 6 -11 10 -16 10 -6
0 -7 -4 -4 -10z"/>
<path d="M2090 3050 c0 -5 7 -10 16 -10 8 0 12 5 9 10 -3 6 -10 10 -16 10 -5
0 -9 -4 -9 -10z"/>
<path d="M2195 3050 c-3 -5 1 -10 10 -10 9 0 13 5 10 10 -3 6 -8 10 -10 10 -2
0 -7 -4 -10 -10z"/>
<path d="M2963 3053 c-13 -2 -23 -11 -23 -20 0 -13 9 -15 57 -9 57 7 71 11 61
21 -8 9 -70 14 -95 8z"/>
<path d="M1870 2998 c-119 -73 -217 -174 -266 -272 -33 -69 -38 -87 -38 -150
-1 -50 5 -81 17 -104 24 -43 29 -37 15 16 -14 57 4 148 45 227 40 77 180 218
264 265 39 22 63 42 63 53 0 9 -4 17 -8 17 -4 0 -46 -23 -92 -52z"/>
<path d="M2165 3030 c3 -5 8 -10 11 -10 2 0 4 5 4 10 0 6 -5 10 -11 10 -5 0
-7 -4 -4 -10z"/>
<path d="M2125 3020 c3 -5 11 -10 16 -10 6 0 7 5 4 10 -3 6 -11 10 -16 10 -6
0 -7 -4 -4 -10z"/>
<path d="M2220 3020 c0 -5 5 -10 11 -10 5 0 7 5 4 10 -3 6 -8 10 -11 10 -2 0
-4 -4 -4 -10z"/>
<path d="M3030 3015 c-8 -2 -32 -6 -52 -10 -24 -4 -38 -11 -38 -20 0 -8 1 -15
3 -15 21 0 173 23 180 27 24 15 -44 28 -93 18z"/>
<path d="M2095 3000 c3 -5 11 -10 16 -10 6 0 7 5 4 10 -3 6 -11 10 -16 10 -6
0 -7 -4 -4 -10z"/>
<path d="M2185 3000 c4 -6 11 -8 16 -5 14 9 11 15 -7 15 -8 0 -12 -5 -9 -10z"/>
<path d="M1900 2958 c-96 -63 -209 -180 -249 -260 -42 -84 -52 -176 -27 -242
24 -62 50 -83 29 -24 -50 142 76 370 276 503 57 38 77 65 48 65 -7 0 -41 -19
-77 -42z"/>
<path d="M2155 2990 c3 -5 11 -10 16 -10 6 0 7 5 4 10 -3 6 -11 10 -16 10 -6
0 -7 -4 -4 -10z"/>
<path d="M2240 2990 c0 -5 5 -10 11 -10 5 0 7 5 4 10 -3 6 -8 10 -11 10 -2 0
-4 -4 -4 -10z"/>
<path d="M2901 2984 c0 -11 3 -14 6 -6 3 7 2 16 -1 19 -3 4 -6 -2 -5 -13z"/>
<path d="M2921 2984 c0 -11 3 -14 6 -6 3 7 2 16 -1 19 -3 4 -6 -2 -5 -13z"/>
<path d="M3090 2975 c-30 -7 -76 -14 -102 -14 -36 -1 -48 -5 -48 -16 0 -25
161 -18 240 11 12 5 12 8 -4 20 -11 8 -22 13 -25 13 -3 -1 -31 -7 -61 -14z"/>
<path d="M2125 2970 c3 -5 11 -10 16 -10 6 0 7 5 4 10 -3 6 -11 10 -16 10 -6
0 -7 -4 -4 -10z"/>
<path d="M2215 2970 c3 -5 8 -10 11 -10 2 0 4 5 4 10 0 6 -5 10 -11 10 -5 0
-7 -4 -4 -10z"/>
<path d="M2090 2960 c0 -13 18 -22 24 -11 3 5 -1 11 -9 15 -8 3 -15 1 -15 -4z"/>
<path d="M2185 2960 c3 -5 11 -10 16 -10 6 0 7 5 4 10 -3 6 -11 10 -16 10 -6
0 -7 -4 -4 -10z"/>
<path d="M1940 2924 c-88 -59 -204 -184 -241 -260 -54 -109 -52 -243 4 -290
21 -19 21 -19 7 0 -10 13 -15 44 -15 100 0 71 4 90 32 150 44 92 117 181 208
252 41 33 75 65 75 72 0 19 -11 15 -70 -24z"/>
<path d="M2901 2944 c0 -11 3 -14 6 -6 3 7 2 16 -1 19 -3 4 -6 -2 -5 -13z"/>
<path d="M2155 2940 c3 -5 8 -10 11 -10 2 0 4 5 4 10 0 6 -5 10 -11 10 -5 0
-7 -4 -4 -10z"/>
<path d="M3175 2939 c-16 -6 -77 -16 -134 -22 -64 -8 -106 -17 -109 -25 -6
-18 160 -16 232 3 73 19 80 23 65 41 -13 16 -13 16 -54 3z"/>
<path d="M2120 2930 c0 -5 7 -10 16 -10 8 0 12 5 9 10 -3 6 -10 10 -16 10 -5
0 -9 -4 -9 -10z"/>
<path d="M1980 2893 c-112 -84 -216 -209 -250 -301 -37 -98 -26 -210 24 -251
14 -12 14 -9 0 25 -26 63 -13 151 37 254 35 71 58 101 142 183 57 57 96 102
91 107 -6 6 -24 -2 -44 -17z"/>
<path d="M2095 2910 c3 -5 11 -10 16 -10 6 0 7 5 4 10 -3 6 -11 10 -16 10 -6
0 -7 -4 -4 -10z"/>
<path d="M2185 2910 c3 -5 8 -10 11 -10 2 0 4 5 4 10 0 6 -5 10 -11 10 -5 0
-7 -4 -4 -10z"/>
<path d="M2851 2904 c0 -11 3 -14 6 -6 3 7 2 16 -1 19 -3 4 -6 -2 -5 -13z"/>
<path d="M2155 2900 c3 -5 11 -10 16 -10 6 0 7 5 4 10 -3 6 -11 10 -16 10 -6
0 -7 -4 -4 -10z"/>
<path d="M3217 2895 c-54 -20 -202 -38 -248 -31 -40 6 -63 -9 -38 -25 23 -14
200 -10 263 6 81 21 100 33 85 51 -14 17 -13 17 -62 -1z"/>
<path d="M2210 2890 c0 -5 5 -10 11 -10 5 0 7 5 4 10 -3 6 -8 10 -11 10 -2 0
-4 -4 -4 -10z"/>
<path d="M2135 2880 c3 -5 11 -10 16 -10 6 0 7 5 4 10 -3 6 -11 10 -16 10 -6
0 -7 -4 -4 -10z"/>
<path d="M1998 2846 c-73 -56 -156 -155 -196 -235 -31 -63 -37 -87 -40 -150
-3 -77 9 -120 36 -129 10 -3 11 3 5 25 -35 125 48 310 201 451 67 61 63 90 -6
38z"/>
<path d="M2185 2870 c3 -5 11 -10 16 -10 6 0 7 5 4 10 -3 6 -11 10 -16 10 -6
0 -7 -4 -4 -10z"/>
<path d="M3254 2849 c-58 -26 -175 -41 -265 -33 -63 5 -77 4 -82 -9 -5 -13 6
-17 60 -23 117 -12 243 0 308 30 49 22 56 28 45 41 -15 18 -15 18 -66 -6z"/>
<path d="M2165 2850 c3 -5 8 -10 11 -10 2 0 4 5 4 10 0 6 -5 10 -11 10 -5 0
-7 -4 -4 -10z"/>
<path d="M2140 2840 c0 -5 5 -10 11 -10 5 0 7 5 4 10 -3 6 -8 10 -11 10 -2 0
-4 -4 -4 -10z"/>
<path d="M2791 2834 c0 -11 3 -14 6 -6 3 7 2 16 -1 19 -3 4 -6 -2 -5 -13z"/>
<path d="M1988 2768 c-79 -81 -131 -160 -160 -242 -28 -83 -20 -206 14 -206
10 0 12 17 10 66 -6 115 54 246 170 370 44 47 58 68 50 76 -8 8 -31 -10 -84
-64z"/>
<path d="M2705 2830 c-3 -5 -1 -10 4 -10 6 0 11 5 11 10 0 6 -2 10 -4 10 -3 0
-8 -4 -11 -10z"/>
<path d="M2841 2824 c0 -11 3 -14 6 -6 3 7 2 16 -1 19 -3 4 -6 -2 -5 -13z"/>
<path d="M2645 2820 c-3 -5 -1 -10 4 -10 6 0 11 5 11 10 0 6 -2 10 -4 10 -3 0
-8 -4 -11 -10z"/>
<path d="M2861 2814 c0 -11 3 -14 6 -6 3 7 2 16 -1 19 -3 4 -6 -2 -5 -13z"/>
<path d="M3290 2804 c-63 -32 -168 -48 -269 -40 -46 3 -94 9 -107 12 -17 4
-24 2 -24 -9 0 -20 13 -24 116 -38 133 -17 267 5 328 54 23 18 26 25 15 34
-10 8 -26 4 -59 -13z"/>
<path d="M2755 2810 c-3 -5 -1 -10 4 -10 6 0 11 5 11 10 0 6 -2 10 -4 10 -3 0
-8 -4 -11 -10z"/>
<path d="M2781 2794 c0 -11 3 -14 6 -6 3 7 2 16 -1 19 -3 4 -6 -2 -5 -13z"/>
<path d="M2048 2763 c-132 -140 -200 -287 -183 -399 11 -73 32 -56 37 32 4 64
12 88 51 167 26 51 69 118 97 150 70 82 69 124 -2 50z"/>
<path d="M2690 2789 c0 -5 5 -7 10 -4 6 3 10 8 10 11 0 2 -4 4 -10 4 -5 0 -10
-5 -10 -11z"/>
<path d="M2200 2786 c0 -2 7 -7 16 -10 8 -3 12 -2 9 4 -6 10 -25 14 -25 6z"/>
<path d="M3331 2764 c-18 -13 -50 -29 -70 -35 -59 -19 -228 -22 -309 -6 -59
11 -74 12 -83 1 -8 -10 -2 -15 28 -23 100 -27 154 -33 249 -29 84 4 111 9 156
31 67 33 94 60 76 74 -9 7 -23 3 -47 -13z"/>
<path d="M2655 2770 c-3 -5 -1 -10 4 -10 6 0 11 5 11 10 0 6 -2 10 -4 10 -3 0
-8 -4 -11 -10z"/>
<path d="M2771 2754 c0 -11 3 -14 6 -6 3 7 2 16 -1 19 -3 4 -6 -2 -5 -13z"/>
<path d="M2078 2723 c-83 -93 -143 -205 -158 -296 -10 -61 -4 -97 15 -97 8 0
17 28 24 74 14 88 60 186 126 274 31 41 44 67 38 73 -6 6 -22 -3 -45 -28z"/>
<path d="M2615 2750 c3 -5 8 -10 11 -10 2 0 4 5 4 10 0 6 -5 10 -11 10 -5 0
-7 -4 -4 -10z"/>
<path d="M2711 2744 c0 -11 3 -14 6 -6 3 7 2 16 -1 19 -3 4 -6 -2 -5 -13z"/>
<path d="M2801 2744 c0 -11 3 -14 6 -6 3 7 2 16 -1 19 -3 4 -6 -2 -5 -13z"/>
<path d="M2640 2740 c0 -5 5 -10 10 -10 6 0 10 5 10 10 0 6 -4 10 -10 10 -5 0
-10 -4 -10 -10z"/>
<path d="M3362 2720 c-79 -66 -273 -85 -434 -43 -60 16 -78 18 -82 8 -5 -15
23 -28 109 -50 176 -45 349 -22 423 58 13 14 22 32 20 40 -2 12 -10 9 -36 -13z"/>
<path d="M2735 2731 c-3 -5 -1 -12 5 -16 5 -3 10 1 10 9 0 18 -6 21 -15 7z"/>
<path d="M2600 2720 c0 -5 5 -10 10 -10 6 0 10 5 10 10 0 6 -4 10 -10 10 -5 0
-10 -4 -10 -10z"/>
<path d="M2760 2715 c0 -8 5 -15 10 -15 6 0 10 7 10 15 0 8 -4 15 -10 15 -5 0
-10 -7 -10 -15z"/>
<path d="M2125 2707 c-99 -132 -155 -254 -155 -337 0 -33 3 -37 20 -33 14 4
20 14 20 32 0 66 53 195 116 284 19 26 32 52 29 57 -8 14 -18 12 -30 -3z"/>
<path d="M2565 2710 c-3 -5 -1 -10 4 -10 6 0 11 5 11 10 0 6 -2 10 -4 10 -3 0
-8 -4 -11 -10z"/>
<path d="M2631 2704 c0 -11 3 -14 6 -6 3 7 2 16 -1 19 -3 4 -6 -2 -5 -13z"/>
<path d="M2701 2704 c0 -11 3 -14 6 -6 3 7 2 16 -1 19 -3 4 -6 -2 -5 -13z"/>
<path d="M2791 2704 c0 -11 3 -14 6 -6 3 7 2 16 -1 19 -3 4 -6 -2 -5 -13z"/>
<path d="M3404 2696 c-9 -24 -78 -64 -140 -82 -79 -23 -250 -15 -352 17 -53
16 -76 19 -84 11 -8 -8 0 -15 28 -27 139 -59 332 -75 435 -36 60 23 129 83
129 113 0 21 -8 24 -16 4z"/>
<path d="M2591 2684 c0 -11 3 -14 6 -6 3 7 2 16 -1 19 -3 4 -6 -2 -5 -13z"/>
<path d="M2661 2684 c0 -11 3 -14 6 -6 3 7 2 16 -1 19 -3 4 -6 -2 -5 -13z"/>
<path d="M2731 2684 c0 -11 3 -14 6 -6 3 7 2 16 -1 19 -3 4 -6 -2 -5 -13z"/>
<path d="M2545 2681 c-3 -5 -1 -12 5 -16 5 -3 10 1 10 9 0 18 -6 21 -15 7z"/>
<path d="M2756 2681 c-4 -7 -5 -15 -2 -18 9 -9 19 4 14 18 -4 11 -6 11 -12 0z"/>
<path d="M2120 2615 c-73 -112 -118 -272 -73 -263 11 2 20 22 29 66 8 37 34
102 63 157 45 85 51 105 31 105 -4 0 -27 -29 -50 -65z"/>
<path d="M2615 2671 c-3 -5 -1 -12 5 -16 5 -3 10 1 10 9 0 18 -6 21 -15 7z"/>
<path d="M2691 2664 c0 -11 3 -14 6 -6 3 7 2 16 -1 19 -3 4 -6 -2 -5 -13z"/>
<path d="M2530 2646 c0 -9 5 -16 10 -16 6 0 10 4 10 9 0 6 -4 13 -10 16 -5 3
-10 -1 -10 -9z"/>
<path d="M2570 2651 c0 -6 5 -13 10 -16 6 -3 10 1 10 9 0 9 -4 16 -10 16 -5 0
-10 -4 -10 -9z"/>
<path d="M2646 2651 c-4 -7 -5 -15 -2 -18 9 -9 19 4 14 18 -4 11 -6 11 -12 0z"/>
<path d="M2721 2644 c0 -11 3 -14 6 -6 3 7 2 16 -1 19 -3 4 -6 -2 -5 -13z"/>
<path d="M3388 2620 c-48 -46 -115 -71 -214 -77 -92 -6 -213 14 -305 52 -55
22 -69 23 -69 3 0 -14 100 -56 185 -78 95 -24 221 -26 294 -4 55 16 135 79
147 116 9 29 3 27 -38 -12z"/>
<path d="M2182 2623 c-49 -69 -113 -235 -97 -251 15 -15 39 18 55 74 9 32 31
87 48 121 36 70 38 76 24 81 -6 2 -19 -10 -30 -25z"/>
<path d="M2600 2631 c0 -6 5 -13 10 -16 6 -3 10 1 10 9 0 9 -4 16 -10 16 -5 0
-10 -4 -10 -9z"/>
<path d="M2682 2620 c0 -14 2 -19 5 -12 2 6 2 18 0 25 -3 6 -5 1 -5 -13z"/>
<path d="M2481 2616 c-8 -10 -9 -16 -1 -21 5 -3 13 1 16 10 9 22 -1 29 -15 11z"/>
<path d="M2560 2616 c0 -8 5 -18 10 -21 6 -3 10 1 10 9 0 8 -4 18 -10 21 -5 3
-10 -1 -10 -9z"/>
<path d="M2207 2573 c-30 -57 -70 -173 -62 -181 12 -12 38 28 72 109 47 113
48 119 31 119 -8 0 -26 -21 -41 -47z"/>
<path d="M2511 2599 c-9 -25 -6 -39 8 -39 13 0 22 43 11 54 -6 6 -13 0 -19
-15z"/>
<path d="M3415 2586 c-12 -19 -46 -44 -85 -64 -119 -60 -274 -53 -461 20 -60
24 -82 29 -91 20 -9 -9 7 -20 63 -46 123 -57 182 -70 304 -71 94 0 117 3 160
23 61 28 103 66 122 111 19 43 13 47 -12 7z"/>
<path d="M2630 2601 c0 -6 5 -13 10 -16 6 -3 10 1 10 9 0 9 -4 16 -10 16 -5 0
-10 -4 -10 -9z"/>
<path d="M2250 2548 c-12 -29 -29 -70 -36 -91 l-14 -39 22 14 c12 8 35 46 50
83 32 78 33 85 14 85 -7 0 -24 -23 -36 -52z"/>
<path d="M2590 2585 c0 -8 5 -15 10 -15 6 0 10 7 10 15 0 8 -4 15 -10 15 -5 0
-10 -7 -10 -15z"/>
<path d="M2545 2580 c-8 -13 -1 -24 14 -19 6 3 7 10 2 18 -6 10 -10 10 -16 1z"/>
<path d="M2313 2568 c-9 -12 -43 -93 -43 -103 0 -3 9 0 21 7 31 19 64 108 40
108 -5 0 -13 -6 -18 -12z"/>
<path d="M2347 2538 c-9 -31 -4 -32 23 -3 23 24 23 25 3 25 -13 0 -23 -8 -26
-22z"/>
<path d="M3382 2500 c-104 -94 -302 -100 -506 -14 -33 14 -73 31 -88 37 -20 8
-31 8 -38 1 -15 -15 118 -84 220 -115 106 -33 253 -33 327 0 49 22 133 98 133
121 0 14 0 14 -48 -30z"/>
<path d="M2721 2486 c-8 -10 7 -23 62 -54 187 -107 398 -137 521 -75 41 20 94
71 113 108 15 28 14 27 -19 -8 -53 -56 -116 -80 -225 -85 -121 -6 -214 16
-342 78 -78 38 -102 46 -110 36z"/>
<path d="M2566 2447 c3 -10 9 -15 12 -12 3 3 0 11 -7 18 -10 9 -11 8 -5 -6z"/>
<path d="M2605 2440 c3 -5 8 -10 11 -10 2 0 4 5 4 10 0 6 -5 10 -11 10 -5 0
-7 -4 -4 -10z"/>
<path d="M2472 2385 c-1 -22 -5 -51 -7 -65 l-6 -25 11 25 c6 13 9 42 7 65 l-4
40 -1 -40z"/>
<path d="M2560 2415 c0 -5 5 -17 10 -25 5 -8 10 -10 10 -5 0 6 -5 17 -10 25
-5 8 -10 11 -10 5z"/>
<path d="M2601 2404 c0 -11 3 -14 6 -6 3 7 2 16 -1 19 -3 4 -6 -2 -5 -13z"/>
<path d="M2259 2303 c-13 -16 -12 -17 4 -4 9 7 17 15 17 17 0 8 -8 3 -21 -13z"/>
<path d="M2426 2293 c-6 -14 -5 -15 5 -6 7 7 10 15 7 18 -3 3 -9 -2 -12 -12z"/>
<path d="M1427 1939 c-22 -59 -22 -59 18 -59 40 0 42 8 17 64 l-18 40 -17 -45z"/>
<path d="M2467 1939 c-22 -59 -22 -59 18 -59 40 0 42 8 17 64 l-18 40 -17 -45z"/>
<path d="M3302 1943 c-5 -16 -13 -36 -17 -45 -6 -16 -1 -18 35 -18 36 0 41 2
35 18 -4 9 -12 29 -17 45 -5 15 -14 27 -18 27 -4 0 -13 -12 -18 -27z"/>
</g>
</svg>
