<?xml version="1.0" encoding="UTF-8"?>
<!DOCTYPE svg PUBLIC "-//W3C//DTD SVG 1.1//EN" "http://www.w3.org/Graphics/SVG/1.1/DTD/svg11.dtd">
<svg xmlns="http://www.w3.org/2000/svg" version="1.1" width="545px" height="403px" style="shape-rendering:geometricPrecision; text-rendering:geometricPrecision; image-rendering:optimizeQuality; fill-rule:evenodd; clip-rule:evenodd" xmlns:xlink="http://www.w3.org/1999/xlink">
<g><path style="opacity:0.69" fill="#838383" d="M 290.5,34.5 C 295.167,33.1667 299.833,33.1667 304.5,34.5C 302.585,34.2155 300.919,34.5489 299.5,35.5C 298.209,35.2627 297.209,35.596 296.5,36.5C 294.5,35.8333 292.5,35.1667 290.5,34.5 Z"/></g>
<g><path style="opacity:0.999" fill="#d9d9d9" d="M 290.5,34.5 C 292.5,35.1667 294.5,35.8333 296.5,36.5C 297.791,36.2627 298.791,36.596 299.5,37.5C 298.432,38.4345 297.099,38.7678 295.5,38.5C 293.473,38.3379 291.473,38.5045 289.5,39C 292.84,40.0033 295.84,41.5033 298.5,43.5C 297.167,43.5 295.833,43.5 294.5,43.5C 292.5,43.1667 290.5,42.8333 288.5,42.5C 284.5,41.1667 280.5,41.1667 276.5,42.5C 275.609,41.8902 274.609,41.5569 273.5,41.5C 278.313,37.2654 283.979,34.932 290.5,34.5 Z"/></g>
<g><path style="opacity:0.999" fill="#f0f0f0" d="M 273.5,41.5 C 274.609,41.5569 275.609,41.8902 276.5,42.5C 278.5,42.8333 280.5,43.1667 282.5,43.5C 283.959,43.4326 285.292,43.7659 286.5,44.5C 286.167,45.1667 285.833,45.8333 285.5,46.5C 283.833,46.5 282.167,46.5 280.5,46.5C 278.034,45.3659 275.367,45.1993 272.5,46C 274.154,46.6077 275.821,47.1077 277.5,47.5C 280.912,48.0421 283.912,49.3754 286.5,51.5C 285.167,51.5 283.833,51.5 282.5,51.5C 279.447,51.0893 276.447,50.4226 273.5,49.5C 272.205,50.0983 270.872,50.5983 269.5,51C 272.476,51.7048 275.142,52.8714 277.5,54.5C 276.508,54.3284 275.842,54.6618 275.5,55.5C 264.619,53.3782 263.952,54.7116 273.5,59.5C 273.5,60.8333 272.833,61.5 271.5,61.5C 261.478,58.3812 260.478,59.7145 268.5,65.5C 267.167,65.5 265.833,65.5 264.5,65.5C 262.145,63.8298 260.812,64.4965 260.5,67.5C 261.855,69.5212 263.521,71.1879 265.5,72.5C 264.167,72.5 262.833,72.5 261.5,72.5C 258.2,71.1335 257.2,72.1335 258.5,75.5C 264.188,79.1879 268.855,83.8546 272.5,89.5C 272.5,90.8333 271.833,91.5 270.5,91.5C 267.163,85.9971 262.663,81.6638 257,78.5C 256.333,79.8333 256.333,81.1667 257,82.5C 259.669,85.9997 262.502,89.333 265.5,92.5C 265.414,93.4959 265.748,94.3292 266.5,95C 265.906,95.4643 265.239,95.631 264.5,95.5C 261.834,92.0012 258.667,89.0012 255,86.5C 254.833,87 254.667,87.5 254.5,88C 256.922,92.9154 259.922,97.4154 263.5,101.5C 262.833,101.833 262.167,102.167 261.5,102.5C 259.233,99.7291 256.733,97.0625 254,94.5C 253.833,95 253.667,95.5 253.5,96C 255.645,100.302 257.978,104.468 260.5,108.5C 260.5,109.833 260.5,111.167 260.5,112.5C 258.552,110.211 256.552,107.878 254.5,105.5C 254.167,106 253.833,106.5 253.5,107C 256.502,113.833 260.835,119.667 266.5,124.5C 266.833,124.167 267.167,123.833 267.5,123.5C 266.544,121.925 265.877,120.258 265.5,118.5C 266.167,118.167 266.833,117.833 267.5,117.5C 272.165,123.017 273.165,122.35 270.5,115.5C 270.842,114.662 271.508,114.328 272.5,114.5C 273.932,116.327 275.599,117.994 277.5,119.5C 278.434,117.905 278.434,116.239 277.5,114.5C 277.263,113.209 277.596,112.209 278.5,111.5C 280.093,113.658 281.926,115.658 284,117.5C 283.74,113.291 282.573,109.291 280.5,105.5C 280.263,104.209 280.596,103.209 281.5,102.5C 283.916,107.001 286.583,111.334 289.5,115.5C 290.472,116.751 291.139,116.418 291.5,114.5C 291.457,113.584 291.124,112.917 290.5,112.5C 289.766,111.292 289.433,109.959 289.5,108.5C 289.328,107.508 289.662,106.842 290.5,106.5C 292.228,109.607 294.228,112.607 296.5,115.5C 296.833,115.167 297.167,114.833 297.5,114.5C 296.423,112.271 295.756,109.937 295.5,107.5C 295.263,106.209 295.596,105.209 296.5,104.5C 298.037,107.9 299.87,111.233 302,114.5C 302.497,112.19 302.663,109.857 302.5,107.5C 302.263,106.209 302.596,105.209 303.5,104.5C 304.81,107.399 306.143,110.399 307.5,113.5C 307.957,114.298 308.624,114.631 309.5,114.5C 310.29,113.391 310.79,112.058 311,110.5C 311.232,111.737 311.732,112.737 312.5,113.5C 313.391,114.11 314.391,114.443 315.5,114.5C 316.167,111.833 316.833,109.167 317.5,106.5C 318.247,109.15 319.247,111.816 320.5,114.5C 321.107,114.376 321.44,114.043 321.5,113.5C 322.167,110.167 322.833,106.833 323.5,103.5C 324.329,107.125 325.162,110.792 326,114.5C 326.414,114.957 326.914,115.291 327.5,115.5C 328.487,112.232 328.82,108.898 328.5,105.5C 328.198,102.941 328.532,100.607 329.5,98.5C 330.266,103.796 331.099,109.129 332,114.5C 333.395,115.815 334.395,115.481 335,113.5C 335.497,110.854 335.664,108.187 335.5,105.5C 335.216,103.585 335.549,101.919 336.5,100.5C 337.006,105.554 337.839,110.554 339,115.5C 339.667,116.833 340.333,116.833 341,115.5C 341.638,104.116 341.138,92.7829 339.5,81.5C 339.232,79.901 339.566,78.5676 340.5,77.5C 341.748,80.9416 342.581,84.6083 343,88.5C 343.378,98.2097 344.211,107.876 345.5,117.5C 351.538,119.568 357.538,121.735 363.5,124C 364.09,125.509 364.756,127.009 365.5,128.5C 371.098,125.529 371.764,126.362 367.5,131C 370.167,130.667 372.833,130.333 375.5,130C 413.176,155.869 429.343,191.703 424,237.5C 423.613,240.599 422.446,243.266 420.5,245.5C 419.761,245.631 419.094,245.464 418.5,245C 420.923,240.689 420.59,240.522 417.5,244.5C 413.589,249.29 408.589,252.29 402.5,253.5C 402.167,252.833 401.833,252.167 401.5,251.5C 409.219,247.808 415.553,242.474 420.5,235.5C 420.333,235.167 420.167,234.833 420,234.5C 418.629,236.041 417.129,237.375 415.5,238.5C 414.5,238.5 413.5,238.5 412.5,238.5C 415.572,235.749 417.905,232.415 419.5,228.5C 417.371,230.95 414.704,232.617 411.5,233.5C 411.557,232.391 411.89,231.391 412.5,230.5C 415.523,227.474 418.19,224.141 420.5,220.5C 420.03,219.537 419.363,219.537 418.5,220.5C 417.167,220.5 416.5,219.833 416.5,218.5C 418.484,216.54 419.317,214.207 419,211.5C 417.195,215.143 414.362,217.476 410.5,218.5C 409.508,218.672 408.842,218.338 408.5,217.5C 411.829,215.166 414.496,212.166 416.5,208.5C 416.167,208.167 415.833,207.833 415.5,207.5C 414.06,208.952 412.394,209.952 410.5,210.5C 410.5,209.833 410.5,209.167 410.5,208.5C 411.81,206.852 413.143,205.186 414.5,203.5C 412.54,202.481 410.54,202.481 408.5,203.5C 408.557,202.391 408.89,201.391 409.5,200.5C 411,198.491 410.5,197.158 408,196.5C 406.2,197.32 404.366,197.986 402.5,198.5C 400.901,198.768 399.568,198.434 398.5,197.5C 401.052,196.307 403.552,194.973 406,193.5C 406.333,191.066 405.166,190.066 402.5,190.5C 401.209,190.737 400.209,190.404 399.5,189.5C 401.552,188.947 401.885,187.947 400.5,186.5C 399.828,185.733 398.995,185.066 398,184.5C 396.989,185.337 395.822,185.67 394.5,185.5C 392.302,185.591 391.969,184.925 393.5,183.5C 394.166,180.817 392.832,179.484 389.5,179.5C 387.901,179.768 386.568,179.434 385.5,178.5C 387.745,178.459 388.412,177.625 387.5,176C 385.323,174.798 382.989,174.298 380.5,174.5C 380.5,173.833 380.5,173.167 380.5,172.5C 380.082,171.778 379.416,171.278 378.5,171C 370.919,169.979 363.585,170.813 356.5,173.5C 355.596,174.209 355.263,175.209 355.5,176.5C 358.059,176.198 360.393,176.532 362.5,177.5C 360.495,178.039 358.495,178.705 356.5,179.5C 360.32,181.145 364.32,181.811 368.5,181.5C 371.385,181.194 374.052,181.527 376.5,182.5C 369.323,183.309 362.323,184.809 355.5,187C 363.159,187.5 370.826,187.666 378.5,187.5C 380.415,187.216 382.081,187.549 383.5,188.5C 373.962,190.118 364.295,190.951 354.5,191C 353.167,191.667 353.167,192.333 354.5,193C 358.915,194.069 363.415,194.569 368,194.5C 375.879,194.286 383.713,193.619 391.5,192.5C 392.791,192.263 393.791,192.596 394.5,193.5C 388.823,195.617 382.823,196.783 376.5,197C 369.469,197.761 362.469,197.595 355.5,196.5C 353.893,196.637 352.559,197.304 351.5,198.5C 358.176,200.319 365.01,201.319 372,201.5C 377.489,200.934 382.989,200.601 388.5,200.5C 390.735,200.205 392.735,200.539 394.5,201.5C 380.461,205.094 366.294,205.428 352,202.5C 348.917,203.593 349.083,204.76 352.5,206C 357.474,207.051 362.474,207.885 367.5,208.5C 371.833,209.167 376.167,209.833 380.5,210.5C 370.26,210.862 360.093,210.195 350,208.5C 348.833,208.833 347.667,209.167 346.5,209.5C 350.118,211.909 354.118,213.409 358.5,214C 371.473,215.809 384.473,215.976 397.5,214.5C 398.492,214.328 399.158,214.662 399.5,215.5C 381.478,219.803 363.478,219.137 345.5,213.5C 344.692,213.808 344.025,214.308 343.5,215C 345.432,216.459 347.432,217.625 349.5,218.5C 348.081,219.451 346.415,219.784 344.5,219.5C 339.975,219.959 339.642,220.959 343.5,222.5C 343.179,224.048 342.179,224.715 340.5,224.5C 338.645,224.272 337.812,224.939 338,226.5C 341.115,228.307 344.281,229.973 347.5,231.5C 347.167,232.167 346.833,232.833 346.5,233.5C 342.931,232.811 339.431,231.811 336,230.5C 334.743,230.85 334.409,231.517 335,232.5C 337.314,233.733 339.481,235.067 341.5,236.5C 341.158,237.338 340.492,237.672 339.5,237.5C 336.575,236.361 333.575,235.861 330.5,236C 332.095,238.102 334.095,239.602 336.5,240.5C 336.5,241.833 335.833,242.5 334.5,242.5C 332.213,242.276 330.047,241.609 328,240.5C 327.5,240.833 327,241.167 326.5,241.5C 327.549,243.216 328.882,244.549 330.5,245.5C 329.167,245.5 327.833,245.5 326.5,245.5C 325.504,245.586 324.671,245.252 324,244.5C 318.259,249.584 312.593,254.584 307,259.5C 306.167,258.5 305.333,257.5 304.5,256.5C 303.833,258.167 303.167,259.833 302.5,261.5C 300.653,258.798 299.487,255.798 299,252.5C 298.762,256.222 298.262,259.889 297.5,263.5C 288.408,270.481 278.075,274.648 266.5,276C 232.16,281.044 201.993,272.211 176,249.5C 174.878,247.593 174.045,245.593 173.5,243.5C 173.5,242.833 173.833,242.5 174.5,242.5C 175.222,242.918 175.722,243.584 176,244.5C 175.623,239.67 175.79,235.003 176.5,230.5C 177.167,232.167 177.833,233.833 178.5,235.5C 179.368,241.103 181.035,246.436 183.5,251.5C 183.56,252.043 183.893,252.376 184.5,252.5C 185.176,251.398 185.842,250.398 186.5,249.5C 187.737,250.965 188.737,252.632 189.5,254.5C 190.89,257.782 192.557,258.448 194.5,256.5C 195.315,257.429 196.148,258.429 197,259.5C 197.483,258.552 197.649,257.552 197.5,256.5C 198.167,256.167 198.833,255.833 199.5,255.5C 200.145,257.826 201.478,259.493 203.5,260.5C 203.833,261.833 204.167,261.833 204.5,260.5C 204.216,258.585 204.549,256.919 205.5,255.5C 206.002,258.085 207.169,260.418 209,262.5C 209.333,262.167 209.667,261.833 210,261.5C 210.499,257.514 210.666,253.514 210.5,249.5C 211.167,252.167 211.833,254.833 212.5,257.5C 213.011,259.195 213.678,260.861 214.5,262.5C 214.833,262 215.167,261.5 215.5,261C 216.333,255.509 217.166,250.009 218,244.5C 218.566,242.277 219.4,240.277 220.5,238.5C 221.404,239.209 221.737,240.209 221.5,241.5C 219.876,247.407 219.376,253.407 220,259.5C 220.667,260.167 221.333,260.833 222,261.5C 223.372,255.673 224.872,250.006 226.5,244.5C 227.404,245.209 227.737,246.209 227.5,247.5C 226.996,251.507 226.83,255.507 227,259.5C 227.718,260.451 228.551,260.617 229.5,260C 230.958,253.336 232.958,246.836 235.5,240.5C 236.492,240.328 237.158,240.662 237.5,241.5C 235.696,246.707 234.863,252.04 235,257.5C 236.147,258.458 237.147,258.125 238,256.5C 238.566,254.277 239.4,252.277 240.5,250.5C 241.338,250.842 241.672,251.508 241.5,252.5C 241.44,256.327 242.607,256.994 245,254.5C 246.801,250.925 248.301,247.258 249.5,243.5C 250.925,241.969 251.591,242.302 251.5,244.5C 249.731,254.367 251.398,254.7 256.5,245.5C 257.001,247.246 257.668,248.246 258.5,248.5C 264.604,242.302 267.937,234.969 268.5,226.5C 267.16,227.867 265.827,229.2 264.5,230.5C 263.662,230.158 263.328,229.492 263.5,228.5C 264.052,226.669 264.052,225.003 263.5,223.5C 261.118,225.215 259.118,227.215 257.5,229.5C 257.167,228.833 256.833,228.167 256.5,227.5C 257.086,225.16 258.086,222.993 259.5,221C 259,220.5 258.5,220 258,219.5C 256.264,221.063 254.764,222.73 253.5,224.5C 252.662,224.158 252.328,223.492 252.5,222.5C 253.167,220.181 253.334,217.847 253,215.5C 250.932,217.396 249.099,219.396 247.5,221.5C 246.662,221.158 246.328,220.492 246.5,219.5C 247.688,216.959 249.022,214.459 250.5,212C 248.366,210.815 246.699,211.648 245.5,214.5C 244.167,214.5 243.5,213.833 243.5,212.5C 244.487,210.527 245.487,208.527 246.5,206.5C 246.167,206.167 245.833,205.833 245.5,205.5C 243.147,207.523 240.814,209.523 238.5,211.5C 238.5,210.5 238.5,209.5 238.5,208.5C 240.14,205.851 241.807,203.184 243.5,200.5C 243.167,200.167 242.833,199.833 242.5,199.5C 239.147,202.522 235.813,205.522 232.5,208.5C 231.662,208.158 231.328,207.492 231.5,206.5C 233.992,203.531 236.492,200.531 239,197.5C 239.667,196.5 239.667,195.5 239,194.5C 233.998,198.67 229.164,203.004 224.5,207.5C 223.662,207.158 223.328,206.492 223.5,205.5C 228.184,200.815 232.518,195.815 236.5,190.5C 236.333,190.167 236.167,189.833 236,189.5C 232.682,191.329 229.516,193.329 226.5,195.5C 225.833,195.5 225.167,195.5 224.5,195.5C 227.158,192.197 229.825,188.864 232.5,185.5C 232.333,185.167 232.167,184.833 232,184.5C 230.22,185.639 228.386,186.639 226.5,187.5C 225.5,187.5 224.5,187.5 223.5,187.5C 226.373,184.889 229.039,182.056 231.5,179C 230.5,178.333 229.5,178.333 228.5,179C 226.612,180.394 224.612,181.56 222.5,182.5C 221.508,182.672 220.842,182.338 220.5,181.5C 223.452,179.215 226.118,176.548 228.5,173.5C 228.167,173.167 227.833,172.833 227.5,172.5C 225.925,173.456 224.258,174.123 222.5,174.5C 221.508,174.672 220.842,174.338 220.5,173.5C 222.36,172.061 224.027,170.395 225.5,168.5C 226.776,167.614 226.776,166.614 225.5,165.5C 224.893,165.624 224.56,165.957 224.5,166.5C 224.167,166.5 223.833,166.5 223.5,166.5C 223.5,165.833 223.5,165.167 223.5,164.5C 223.611,163.883 223.944,163.383 224.5,163C 222.591,156.378 220.924,149.711 219.5,143C 220.313,141.686 221.313,140.519 222.5,139.5C 218.187,137.026 218.52,135.526 223.5,135C 221.639,133.972 220.305,132.472 219.5,130.5C 221.24,91.413 239.24,61.7463 273.5,41.5 Z M 270.5,91.5 C 273.846,96.2043 277.179,100.871 280.5,105.5C 282.573,109.291 283.74,113.291 284,117.5C 281.926,115.658 280.093,113.658 278.5,111.5C 275.331,104.338 270.998,98.0047 265.5,92.5C 262.502,89.333 259.669,85.9997 257,82.5C 256.333,81.1667 256.333,79.8333 257,78.5C 262.663,81.6638 267.163,85.9971 270.5,91.5 Z M 264.5,95.5 C 269.588,101.35 273.921,107.683 277.5,114.5C 278.434,116.239 278.434,117.905 277.5,119.5C 275.599,117.994 273.932,116.327 272.5,114.5C 270.237,109.635 267.237,105.302 263.5,101.5C 259.922,97.4154 256.922,92.9154 254.5,88C 254.667,87.5 254.833,87 255,86.5C 258.667,89.0012 261.834,92.0012 264.5,95.5 Z M 261.5,102.5 C 264.266,107.045 267.266,111.378 270.5,115.5C 273.165,122.35 272.165,123.017 267.5,117.5C 265.518,114.19 263.185,111.19 260.5,108.5C 257.978,104.468 255.645,100.302 253.5,96C 253.667,95.5 253.833,95 254,94.5C 256.733,97.0625 259.233,99.7291 261.5,102.5 Z M 260.5,112.5 C 262.177,114.54 263.844,116.54 265.5,118.5C 265.877,120.258 266.544,121.925 267.5,123.5C 267.167,123.833 266.833,124.167 266.5,124.5C 260.835,119.667 256.502,113.833 253.5,107C 253.833,106.5 254.167,106 254.5,105.5C 256.552,107.878 258.552,110.211 260.5,112.5 Z M 253.5,114.5 C 256.934,118.506 260.268,122.672 263.5,127C 261.064,127.436 259.064,126.603 257.5,124.5C 255.049,121.6 253.715,118.266 253.5,114.5 Z M 309.5,125.5 C 310.773,126.077 310.773,126.743 309.5,127.5C 308.537,127.03 308.537,126.363 309.5,125.5 Z M 254.5,126.5 C 257.322,127.789 257.989,129.789 256.5,132.5C 255.232,130.696 254.565,128.696 254.5,126.5 Z M 292.5,127.5 C 295.001,127.511 295.168,128.178 293,129.5C 292.536,128.906 292.369,128.239 292.5,127.5 Z M 326.5,128.5 C 329.012,129.216 329.012,130.216 326.5,131.5C 325.438,130.575 325.438,129.575 326.5,128.5 Z M 299.5,132.5 C 302.001,132.511 302.168,133.178 300,134.5C 299.536,133.906 299.369,133.239 299.5,132.5 Z M 314.5,132.5 C 316.337,132.639 316.67,133.306 315.5,134.5C 314.702,134.043 314.369,133.376 314.5,132.5 Z M 331.5,132.5 C 333.975,132.747 333.975,133.413 331.5,134.5C 330.537,134.03 330.537,133.363 331.5,132.5 Z M 314.5,136.5 C 316.337,136.639 316.67,137.306 315.5,138.5C 314.702,138.043 314.369,137.376 314.5,136.5 Z M 336.5,136.5 C 338.975,136.747 338.975,137.413 336.5,138.5C 335.537,138.03 335.537,137.363 336.5,136.5 Z M 330.5,137.5 C 331.376,137.369 332.043,137.702 332.5,138.5C 330.192,139.873 329.525,139.54 330.5,137.5 Z M 324.5,139.5 C 327.001,139.511 327.168,140.178 325,141.5C 324.536,140.906 324.369,140.239 324.5,139.5 Z M 340.5,140.5 C 342.337,140.639 342.67,141.306 341.5,142.5C 340.702,142.043 340.369,141.376 340.5,140.5 Z M 329.5,143.5 C 332.001,143.511 332.168,144.178 330,145.5C 329.536,144.906 329.369,144.239 329.5,143.5 Z M 343.5,144.5 C 344.681,146.669 343.847,148.002 341,148.5C 339.941,148.37 339.108,147.87 338.5,147C 340.315,146.243 341.981,145.41 343.5,144.5 Z M 254.5,146.5 C 255.837,147.315 256.837,148.482 257.5,150C 255.066,150.333 254.066,149.166 254.5,146.5 Z M 333.5,147.5 C 336.001,147.511 336.168,148.178 334,149.5C 333.536,148.906 333.369,148.239 333.5,147.5 Z M 249.5,148.5 C 252.719,149.021 253.719,150.688 252.5,153.5C 250.738,152.312 249.738,150.645 249.5,148.5 Z M 338.5,152.5 C 339.708,151.218 341.042,151.218 342.5,152.5C 341.3,153.292 339.967,153.292 338.5,152.5 Z M 245.5,152.5 C 247.337,152.639 247.67,153.306 246.5,154.5C 245.702,154.043 245.369,153.376 245.5,152.5 Z M 254.5,156.5 C 255.497,155.287 256.497,155.454 257.5,157C 256.423,157.47 255.423,157.303 254.5,156.5 Z M 248.5,156.5 C 249.675,156.281 250.675,156.614 251.5,157.5C 249.948,158.798 248.948,158.465 248.5,156.5 Z M 244.5,158.5 C 245.289,158.783 245.956,159.283 246.5,160C 245.184,160.528 244.517,160.028 244.5,158.5 Z M 257.5,160.5 C 258.497,159.287 259.497,159.454 260.5,161C 259.423,161.47 258.423,161.303 257.5,160.5 Z M 355.5,160.5 C 361.656,161.342 361.823,162.342 356,163.5C 354.317,162.824 354.15,161.824 355.5,160.5 Z M 248.5,164.5 C 249.077,163.227 249.743,163.227 250.5,164.5C 250.03,165.463 249.363,165.463 248.5,164.5 Z M 242.5,164.5 C 244.983,164.73 245.483,165.397 244,166.5C 242.97,166.164 242.47,165.497 242.5,164.5 Z M 256.5,164.5 C 258.337,164.639 258.67,165.306 257.5,166.5C 256.702,166.043 256.369,165.376 256.5,164.5 Z M 357.5,165.5 C 376.152,166.176 376.152,167.51 357.5,169.5C 356.374,168.192 356.374,166.858 357.5,165.5 Z M 247.5,168.5 C 248.289,168.783 248.956,169.283 249.5,170C 248.184,170.528 247.517,170.028 247.5,168.5 Z M 380.5,172.5 C 373.684,173.545 366.851,174.545 360,175.5C 358.319,175.392 357.152,174.725 356.5,173.5C 363.585,170.813 370.919,169.979 378.5,171C 379.416,171.278 380.082,171.778 380.5,172.5 Z M 243.5,172.5 C 244.077,171.227 244.743,171.227 245.5,172.5C 245.03,173.463 244.363,173.463 243.5,172.5 Z M 251.5,172.5 C 252.289,172.783 252.956,173.283 253.5,174C 252.184,174.528 251.517,174.028 251.5,172.5 Z M 262.5,172.5 C 263.289,172.783 263.956,173.283 264.5,174C 263.184,174.528 262.517,174.028 262.5,172.5 Z M 380.5,174.5 C 382.989,174.298 385.323,174.798 387.5,176C 388.412,177.625 387.745,178.459 385.5,178.5C 379.744,179.7 374.077,180.7 368.5,181.5C 364.32,181.811 360.32,181.145 356.5,179.5C 358.495,178.705 360.495,178.039 362.5,177.5C 368.804,177.561 374.804,176.561 380.5,174.5 Z M 247.5,176.5 C 248.077,175.227 248.743,175.227 249.5,176.5C 249.03,177.463 248.363,177.463 247.5,176.5 Z M 255.5,176.5 C 256.289,176.783 256.956,177.283 257.5,178C 256.184,178.528 255.517,178.028 255.5,176.5 Z M 242.5,178.5 C 243.386,177.224 244.386,177.224 245.5,178.5C 244.575,179.562 243.575,179.562 242.5,178.5 Z M 389.5,179.5 C 392.832,179.484 394.166,180.817 393.5,183.5C 388.433,185.015 383.433,186.348 378.5,187.5C 370.826,187.666 363.159,187.5 355.5,187C 362.323,184.809 369.323,183.309 376.5,182.5C 381.192,182.575 385.526,181.575 389.5,179.5 Z M 246.5,180.5 C 248.983,180.73 249.483,181.397 248,182.5C 246.97,182.164 246.47,181.497 246.5,180.5 Z M 243.5,184.5 C 244.077,183.227 244.743,183.227 245.5,184.5C 245.03,185.463 244.363,185.463 243.5,184.5 Z M 251.5,184.5 C 252.289,184.783 252.956,185.283 253.5,186C 252.184,186.528 251.517,186.028 251.5,184.5 Z M 400.5,186.5 C 400.443,187.609 400.11,188.609 399.5,189.5C 396.603,190.129 393.936,191.129 391.5,192.5C 383.713,193.619 375.879,194.286 368,194.5C 363.415,194.569 358.915,194.069 354.5,193C 353.167,192.333 353.167,191.667 354.5,191C 364.295,190.951 373.962,190.118 383.5,188.5C 387.479,188.258 391.146,187.258 394.5,185.5C 395.822,185.67 396.989,185.337 398,184.5C 398.995,185.066 399.828,185.733 400.5,186.5 Z M 248.5,188.5 C 249.077,187.227 249.743,187.227 250.5,188.5C 250.03,189.463 249.363,189.463 248.5,188.5 Z M 255.5,188.5 C 256.289,188.783 256.956,189.283 257.5,190C 256.184,190.528 255.517,190.028 255.5,188.5 Z M 402.5,190.5 C 405.166,190.066 406.333,191.066 406,193.5C 403.552,194.973 401.052,196.307 398.5,197.5C 395.06,198.511 391.726,199.511 388.5,200.5C 382.989,200.601 377.489,200.934 372,201.5C 365.01,201.319 358.176,200.319 351.5,198.5C 352.559,197.304 353.893,196.637 355.5,196.5C 362.469,197.595 369.469,197.761 376.5,197C 382.823,196.783 388.823,195.617 394.5,193.5C 397.443,193.02 400.11,192.02 402.5,190.5 Z M 409.5,200.5 C 396.458,207.641 382.458,210.308 367.5,208.5C 362.474,207.885 357.474,207.051 352.5,206C 349.083,204.76 348.917,203.593 352,202.5C 366.294,205.428 380.461,205.094 394.5,201.5C 397.443,201.02 400.11,200.02 402.5,198.5C 404.366,197.986 406.2,197.32 408,196.5C 410.5,197.158 411,198.491 409.5,200.5 Z M 410.5,208.5 C 405.978,210.264 401.645,212.264 397.5,214.5C 384.473,215.976 371.473,215.809 358.5,214C 354.118,213.409 350.118,211.909 346.5,209.5C 347.667,209.167 348.833,208.833 350,208.5C 360.093,210.195 370.26,210.862 380.5,210.5C 390.858,211.565 400.191,209.231 408.5,203.5C 410.54,202.481 412.54,202.481 414.5,203.5C 413.143,205.186 411.81,206.852 410.5,208.5 Z M 316.5,205.5 C 317.289,205.783 317.956,206.283 318.5,207C 317.184,207.528 316.517,207.028 316.5,205.5 Z M 328.5,207.5 C 329.289,207.783 329.956,208.283 330.5,209C 329.184,209.528 328.517,209.028 328.5,207.5 Z M 408.5,217.5 C 394.381,223.659 379.715,225.159 364.5,222C 359.445,220.986 354.445,219.819 349.5,218.5C 347.432,217.625 345.432,216.459 343.5,215C 344.025,214.308 344.692,213.808 345.5,213.5C 363.478,219.137 381.478,219.803 399.5,215.5C 403.852,215.154 407.519,213.488 410.5,210.5C 412.394,209.952 414.06,208.952 415.5,207.5C 415.833,207.833 416.167,208.167 416.5,208.5C 414.496,212.166 411.829,215.166 408.5,217.5 Z M 310.5,208.5 C 312.337,208.639 312.67,209.306 311.5,210.5C 310.702,210.043 310.369,209.376 310.5,208.5 Z M 416.5,218.5 C 410.022,224.905 402.355,228.905 393.5,230.5C 385.833,230.5 378.167,230.5 370.5,230.5C 361.27,228.938 352.27,226.272 343.5,222.5C 339.642,220.959 339.975,219.959 344.5,219.5C 360.945,225.064 377.945,226.897 395.5,225C 401.162,224.068 406.162,221.901 410.5,218.5C 414.362,217.476 417.195,215.143 419,211.5C 419.317,214.207 418.484,216.54 416.5,218.5 Z M 312.5,215.5 C 313.289,215.783 313.956,216.283 314.5,217C 313.184,217.528 312.517,217.028 312.5,215.5 Z M 301.5,218.5 C 303.332,219.14 303.665,220.14 302.5,221.5C 301.614,220.675 301.281,219.675 301.5,218.5 Z M 306.5,219.5 C 307.077,218.227 307.743,218.227 308.5,219.5C 308.03,220.463 307.363,220.463 306.5,219.5 Z M 412.5,230.5 C 403.821,236.388 394.155,239.055 383.5,238.5C 371.084,238.217 359.084,235.883 347.5,231.5C 344.281,229.973 341.115,228.307 338,226.5C 337.812,224.939 338.645,224.272 340.5,224.5C 348.055,228.015 356.055,230.348 364.5,231.5C 370.1,232.943 375.933,233.61 382,233.5C 387.743,233.642 393.243,232.975 398.5,231.5C 406.619,230.361 413.286,226.694 418.5,220.5C 419.363,219.537 420.03,219.537 420.5,220.5C 418.19,224.141 415.523,227.474 412.5,230.5 Z M 310.5,220.5 C 312.225,220.843 312.725,221.843 312,223.5C 310.961,222.756 310.461,221.756 310.5,220.5 Z M 295.5,222.5 C 296.776,223.386 296.776,224.386 295.5,225.5C 294.438,224.575 294.438,223.575 295.5,222.5 Z M 305.5,222.5 C 307.273,223.314 307.773,224.648 307,226.5C 305.812,225.437 305.312,224.103 305.5,222.5 Z M 299.5,224.5 C 301.951,226.21 301.951,228.21 299.5,230.5C 298.306,228.484 298.306,226.484 299.5,224.5 Z M 314.5,224.5 C 316.225,224.843 316.725,225.843 316,227.5C 314.961,226.756 314.461,225.756 314.5,224.5 Z M 258.5,248.5 C 260.298,242.438 262.298,236.438 264.5,230.5C 265.827,229.2 267.16,227.867 268.5,226.5C 267.937,234.969 264.604,242.302 258.5,248.5 Z M 309.5,226.5 C 311.973,226.947 312.14,227.947 310,229.5C 309.517,228.552 309.351,227.552 309.5,226.5 Z M 273.5,228.5 C 274.478,228.811 275.145,229.478 275.5,230.5C 274.447,235.874 271.78,240.207 267.5,243.5C 268.245,238.315 270.245,233.315 273.5,228.5 Z M 303.5,228.5 C 305.337,228.639 305.67,229.306 304.5,230.5C 303.702,230.043 303.369,229.376 303.5,228.5 Z M 419.5,228.5 C 417.905,232.415 415.572,235.749 412.5,238.5C 407.546,241.147 402.546,243.48 397.5,245.5C 388.167,245.5 378.833,245.5 369.5,245.5C 360.003,243.335 350.669,240.335 341.5,236.5C 339.481,235.067 337.314,233.733 335,232.5C 334.409,231.517 334.743,230.85 336,230.5C 339.431,231.811 342.931,232.811 346.5,233.5C 364.423,241.814 383.09,243.647 402.5,239C 405.898,237.643 408.898,235.81 411.5,233.5C 414.704,232.617 417.371,230.95 419.5,228.5 Z M 278.5,231.5 C 279.552,231.351 280.552,231.517 281.5,232C 280,233.5 278.5,235 277,236.5C 276.387,234.505 276.887,232.838 278.5,231.5 Z"/></g>
<g><path style="opacity:0.237" fill="#545454" d="M 276.5,42.5 C 280.5,41.1667 284.5,41.1667 288.5,42.5C 286.265,42.2053 284.265,42.5386 282.5,43.5C 280.5,43.1667 278.5,42.8333 276.5,42.5 Z"/></g>
<g><path style="opacity:0.279" fill="#4d4d4d" d="M 280.5,46.5 C 279.209,46.2627 278.209,46.596 277.5,47.5C 275.821,47.1077 274.154,46.6077 272.5,46C 275.367,45.1993 278.034,45.3659 280.5,46.5 Z"/></g>
<g><path style="opacity:1" fill="#b4b4b4" d="M 277.5,54.5 C 289.989,61.1623 298.822,71.1623 304,84.5C 307.551,93.9841 310.385,103.651 312.5,113.5C 311.732,112.737 311.232,111.737 311,110.5C 310.79,112.058 310.29,113.391 309.5,114.5C 306.978,95.1275 299.312,78.1275 286.5,63.5C 282.943,60.5673 279.276,57.9006 275.5,55.5C 275.842,54.6618 276.508,54.3284 277.5,54.5 Z"/></g>
<g><path style="opacity:1" fill="#b8b8b8" d="M 299.5,35.5 C 300.919,34.5489 302.585,34.2155 304.5,34.5C 313.609,36.4167 321.109,41.0833 327,48.5C 333.655,57.1453 338.155,66.812 340.5,77.5C 339.566,78.5676 339.232,79.901 339.5,81.5C 336.447,69.0591 330.947,57.7257 323,47.5C 316.607,40.7202 308.774,36.7202 299.5,35.5 Z"/></g>
<g><path style="opacity:0.999" fill="#bcbcbc" d="M 261.5,72.5 C 262.833,72.5 264.167,72.5 265.5,72.5C 270.77,75.9353 275.27,80.2686 279,85.5C 283.874,91.9129 287.707,98.9129 290.5,106.5C 289.662,106.842 289.328,107.508 289.5,108.5C 284.774,99.3906 279.274,90.7239 273,82.5C 269.562,78.5587 265.729,75.2254 261.5,72.5 Z"/></g>
<g><path style="opacity:0.996" fill="#b3b3b3" d="M 294.5,43.5 C 295.833,43.5 297.167,43.5 298.5,43.5C 302.694,45.1831 306.527,47.5164 310,50.5C 321.085,64.5781 327.585,80.5781 329.5,98.5C 328.532,100.607 328.198,102.941 328.5,105.5C 326.959,90.3655 322.459,76.0322 315,62.5C 309.878,54.2068 303.044,47.8734 294.5,43.5 Z"/></g>
<g><path style="opacity:0.999" fill="#b9b9b9" d="M 299.5,37.5 C 303.362,38.4281 307.029,39.9281 310.5,42C 325.613,55.3923 333.946,72.2256 335.5,92.5C 335.795,94.7354 335.461,96.7354 334.5,98.5C 332.808,84.3978 328.641,71.0645 322,58.5C 315.475,48.517 306.642,41.8503 295.5,38.5C 297.099,38.7678 298.432,38.4345 299.5,37.5 Z"/></g>
<g><path style="opacity:1" fill="#b9b9b9" d="M 286.5,44.5 C 296.83,47.6559 304.664,53.9893 310,63.5C 317.203,75.9418 321.703,89.2752 323.5,103.5C 322.833,106.833 322.167,110.167 321.5,113.5C 320.994,90.802 313.327,70.9687 298.5,54C 294.398,50.9539 290.065,48.4539 285.5,46.5C 285.833,45.8333 286.167,45.1667 286.5,44.5 Z"/></g>
<g><path style="opacity:0.994" fill="#b9b9b9" d="M 264.5,65.5 C 265.833,65.5 267.167,65.5 268.5,65.5C 274.723,68.8842 279.89,73.5509 284,79.5C 289.238,87.3087 293.404,95.642 296.5,104.5C 295.596,105.209 295.263,106.209 295.5,107.5C 290.47,94.2896 283.137,82.4563 273.5,72C 270.598,69.5828 267.598,67.4161 264.5,65.5 Z"/></g>
<g><path style="opacity:1" fill="#b7b7b7" d="M 282.5,51.5 C 283.833,51.5 285.167,51.5 286.5,51.5C 294.815,56.3162 301.315,62.9829 306,71.5C 311.94,82.4864 315.773,94.153 317.5,106.5C 316.833,109.167 316.167,111.833 315.5,114.5C 313.856,92.383 305.523,73.2163 290.5,57C 287.93,54.9131 285.263,53.0798 282.5,51.5 Z"/></g>
<g><path style="opacity:0.957" fill="#b5b5b5" d="M 273.5,59.5 C 289.228,70.6057 299.228,85.6057 303.5,104.5C 302.596,105.209 302.263,106.209 302.5,107.5C 297.132,88.7469 286.798,73.4136 271.5,61.5C 272.833,61.5 273.5,60.8333 273.5,59.5 Z"/></g>
<g><path style="opacity:0.996" fill="#b7b7b7" d="M 272.5,89.5 C 275.857,93.5346 278.857,97.8679 281.5,102.5C 280.596,103.209 280.263,104.209 280.5,105.5C 277.179,100.871 273.846,96.2043 270.5,91.5C 271.833,91.5 272.5,90.8333 272.5,89.5 Z"/></g>
<g><path style="opacity:0.741" fill="#787878" d="M 335.5,92.5 C 336.473,94.9479 336.806,97.6146 336.5,100.5C 335.549,101.919 335.216,103.585 335.5,105.5C 334.532,103.393 334.198,101.059 334.5,98.5C 335.461,96.7354 335.795,94.7354 335.5,92.5 Z"/></g>
<g><path style="opacity:0.999" fill="#b8b8b8" d="M 265.5,92.5 C 270.998,98.0047 275.331,104.338 278.5,111.5C 277.596,112.209 277.263,113.209 277.5,114.5C 273.921,107.683 269.588,101.35 264.5,95.5C 265.239,95.631 265.906,95.4643 266.5,95C 265.748,94.3292 265.414,93.4959 265.5,92.5 Z"/></g>
<g><path style="opacity:0.994" fill="#b8b8b8" d="M 263.5,101.5 C 267.237,105.302 270.237,109.635 272.5,114.5C 271.508,114.328 270.842,114.662 270.5,115.5C 267.266,111.378 264.266,107.045 261.5,102.5C 262.167,102.167 262.833,101.833 263.5,101.5 Z"/></g>
<g><path style="opacity:0.999" fill="#bfbfbf" d="M 260.5,108.5 C 263.185,111.19 265.518,114.19 267.5,117.5C 266.833,117.833 266.167,118.167 265.5,118.5C 263.844,116.54 262.177,114.54 260.5,112.5C 260.5,111.167 260.5,109.833 260.5,108.5 Z"/></g>
<g><path style="opacity:0.29" fill="#535353" d="M 290.5,112.5 C 291.124,112.917 291.457,113.584 291.5,114.5C 291.139,116.418 290.472,116.751 289.5,115.5C 290.404,114.791 290.737,113.791 290.5,112.5 Z"/></g>
<g><path style="opacity:0.059" fill="#2e2e2e" d="M 281.5,127.5 C 281.517,125.972 282.184,125.472 283.5,126C 282.956,126.717 282.289,127.217 281.5,127.5 Z"/></g>
<g><path style="opacity:0.247" fill="#4e4e4e" d="M 309.5,138.5 C 310.386,137.224 311.386,137.224 312.5,138.5C 312.376,139.107 312.043,139.44 311.5,139.5C 311.158,138.662 310.492,138.328 309.5,138.5 Z"/></g>
<g><path style="opacity:0.157" fill="#646464" d="M 224.5,166.5 C 224.56,165.957 224.893,165.624 225.5,165.5C 226.776,166.614 226.776,167.614 225.5,168.5C 225.672,167.508 225.338,166.842 224.5,166.5 Z"/></g>
<g><path style="opacity:0.055" fill="#383838" d="M 261.5,169.5 C 260.833,169.5 260.5,169.833 260.5,170.5C 259.957,170.44 259.624,170.107 259.5,169.5C 260.257,168.227 260.923,168.227 261.5,169.5 Z"/></g>
<g><path style="opacity:0.999" fill="#bbbbbb" d="M 380.5,172.5 C 380.5,173.167 380.5,173.833 380.5,174.5C 374.804,176.561 368.804,177.561 362.5,177.5C 360.393,176.532 358.059,176.198 355.5,176.5C 355.263,175.209 355.596,174.209 356.5,173.5C 357.152,174.725 358.319,175.392 360,175.5C 366.851,174.545 373.684,173.545 380.5,172.5 Z"/></g>
<g><path style="opacity:0.997" fill="#c6c6c6" d="M 223.5,164.5 C 223.5,165.167 223.5,165.833 223.5,166.5C 206.417,175.412 192.251,187.745 181,203.5C 172.592,215.465 170.425,228.465 174.5,242.5C 173.833,242.5 173.5,242.833 173.5,243.5C 172.207,242.158 171.374,240.491 171,238.5C 168.834,226.184 170.834,214.517 177,203.5C 189.024,186.305 204.524,173.305 223.5,164.5 Z"/></g>
<g><path style="opacity:1" fill="#b7b7b7" d="M 385.5,178.5 C 386.568,179.434 387.901,179.768 389.5,179.5C 385.526,181.575 381.192,182.575 376.5,182.5C 374.052,181.527 371.385,181.194 368.5,181.5C 374.077,180.7 379.744,179.7 385.5,178.5 Z"/></g>
<g><path style="opacity:0.998" fill="#bababa" d="M 220.5,181.5 C 220.842,182.338 221.508,182.672 222.5,182.5C 210.824,191.678 200.657,202.344 192,214.5C 186.094,225.529 184.261,237.195 186.5,249.5C 185.842,250.398 185.176,251.398 184.5,252.5C 183.893,252.376 183.56,252.043 183.5,251.5C 184.043,251.44 184.376,251.107 184.5,250.5C 180.72,236.594 182.887,223.594 191,211.5C 198.352,198.982 208.186,188.982 220.5,181.5 Z"/></g>
<g><path style="opacity:1" fill="#b3b3b3" d="M 393.5,183.5 C 391.969,184.925 392.302,185.591 394.5,185.5C 391.146,187.258 387.479,188.258 383.5,188.5C 382.081,187.549 380.415,187.216 378.5,187.5C 383.433,186.348 388.433,185.015 393.5,183.5 Z"/></g>
<g><path style="opacity:0.998" fill="#bdbdbd" d="M 223.5,187.5 C 224.5,187.5 225.5,187.5 226.5,187.5C 214.753,197.087 204.919,208.42 197,221.5C 191.118,232.866 190.285,244.533 194.5,256.5C 192.557,258.448 190.89,257.782 189.5,254.5C 189.425,247.075 189.592,239.408 190,231.5C 196.603,213.264 207.77,198.597 223.5,187.5 Z"/></g>
<g><path style="opacity:0.671" fill="#5b5b5b" d="M 400.5,186.5 C 401.885,187.947 401.552,188.947 399.5,189.5C 400.11,188.609 400.443,187.609 400.5,186.5 Z"/></g>
<g><path style="opacity:0.998" fill="#bdbdbd" d="M 220.5,173.5 C 220.842,174.338 221.508,174.672 222.5,174.5C 205.066,185.102 191.566,199.435 182,217.5C 179.997,223.346 178.831,229.346 178.5,235.5C 177.833,233.833 177.167,232.167 176.5,230.5C 177.483,220.205 180.983,210.871 187,202.5C 193.93,194.447 201.43,186.947 209.5,180C 212.892,177.306 216.559,175.14 220.5,173.5 Z"/></g>
<g><path style="opacity:1" fill="#acacac" d="M 399.5,189.5 C 400.209,190.404 401.209,190.737 402.5,190.5C 400.11,192.02 397.443,193.02 394.5,193.5C 393.791,192.596 392.791,192.263 391.5,192.5C 393.936,191.129 396.603,190.129 399.5,189.5 Z"/></g>
<g><path style="opacity:0.999" fill="#a8a8a8" d="M 398.5,197.5 C 399.568,198.434 400.901,198.768 402.5,198.5C 400.11,200.02 397.443,201.02 394.5,201.5C 392.735,200.539 390.735,200.205 388.5,200.5C 391.726,199.511 395.06,198.511 398.5,197.5 Z"/></g>
<g><path style="opacity:1" fill="#aeaeae" d="M 409.5,200.5 C 408.89,201.391 408.557,202.391 408.5,203.5C 400.191,209.231 390.858,211.565 380.5,210.5C 376.167,209.833 371.833,209.167 367.5,208.5C 382.458,210.308 396.458,207.641 409.5,200.5 Z"/></g>
<g><path style="opacity:0.999" fill="#b4b4b4" d="M 223.5,205.5 C 223.328,206.492 223.662,207.158 224.5,207.5C 217.634,215.562 212.134,224.562 208,234.5C 206.117,241.375 205.284,248.375 205.5,255.5C 204.549,256.919 204.216,258.585 204.5,260.5C 204.167,260.5 203.833,260.5 203.5,260.5C 201.453,238.94 208.119,220.607 223.5,205.5 Z"/></g>
<g><path style="opacity:0.995" fill="#b8b8b8" d="M 410.5,208.5 C 410.5,209.167 410.5,209.833 410.5,210.5C 407.519,213.488 403.852,215.154 399.5,215.5C 399.158,214.662 398.492,214.328 397.5,214.5C 401.645,212.264 405.978,210.264 410.5,208.5 Z"/></g>
<g><path style="opacity:1" fill="#bcbcbc" d="M 224.5,195.5 C 225.167,195.5 225.833,195.5 226.5,195.5C 215.798,205.89 207.298,217.89 201,231.5C 198.836,239.45 198.336,247.45 199.5,255.5C 198.833,255.833 198.167,256.167 197.5,256.5C 194.525,246.687 195.359,237.02 200,227.5C 205.521,214.784 213.688,204.117 224.5,195.5 Z"/></g>
<g><path style="opacity:0.996" fill="#bdbdbd" d="M 246.5,219.5 C 246.328,220.492 246.662,221.158 247.5,221.5C 243.62,227.927 240.287,234.593 237.5,241.5C 237.158,240.662 236.492,240.328 235.5,240.5C 237.881,232.735 241.548,225.735 246.5,219.5 Z"/></g>
<g><path style="opacity:1" fill="#bbbbbb" d="M 408.5,217.5 C 408.842,218.338 409.508,218.672 410.5,218.5C 406.162,221.901 401.162,224.068 395.5,225C 377.945,226.897 360.945,225.064 344.5,219.5C 346.415,219.784 348.081,219.451 349.5,218.5C 354.445,219.819 359.445,220.986 364.5,222C 379.715,225.159 394.381,223.659 408.5,217.5 Z"/></g>
<g><path style="opacity:0.998" fill="#b7b7b7" d="M 416.5,218.5 C 416.5,219.833 417.167,220.5 418.5,220.5C 413.286,226.694 406.619,230.361 398.5,231.5C 397.081,230.549 395.415,230.216 393.5,230.5C 402.355,228.905 410.022,224.905 416.5,218.5 Z"/></g>
<g><path style="opacity:0.996" fill="#b2b2b2" d="M 252.5,222.5 C 252.328,223.492 252.662,224.158 253.5,224.5C 248.895,233.67 244.895,243.004 241.5,252.5C 241.672,251.508 241.338,250.842 240.5,250.5C 242.378,240.182 246.378,230.849 252.5,222.5 Z"/></g>
<g><path style="opacity:1" fill="#adadad" d="M 343.5,222.5 C 352.27,226.272 361.27,228.938 370.5,230.5C 368.265,230.205 366.265,230.539 364.5,231.5C 356.055,230.348 348.055,228.015 340.5,224.5C 342.179,224.715 343.179,224.048 343.5,222.5 Z"/></g>
<g><path style="opacity:0.996" fill="#bbbbbb" d="M 256.5,227.5 C 256.833,228.167 257.167,228.833 257.5,229.5C 255.874,234.723 253.874,239.723 251.5,244.5C 251.591,242.302 250.925,241.969 249.5,243.5C 251.322,237.864 253.655,232.531 256.5,227.5 Z"/></g>
<g><path style="opacity:1" fill="#c1c1c1" d="M 370.5,230.5 C 378.167,230.5 385.833,230.5 393.5,230.5C 395.415,230.216 397.081,230.549 398.5,231.5C 393.243,232.975 387.743,233.642 382,233.5C 375.933,233.61 370.1,232.943 364.5,231.5C 366.265,230.539 368.265,230.205 370.5,230.5 Z"/></g>
<g><path style="opacity:1" fill="#bebebe" d="M 243.5,212.5 C 243.5,213.833 244.167,214.5 245.5,214.5C 237.757,224.569 231.757,235.569 227.5,247.5C 227.737,246.209 227.404,245.209 226.5,244.5C 230.084,232.663 235.75,221.996 243.5,212.5 Z"/></g>
<g><path style="opacity:0.998" fill="#b4b4b4" d="M 238.5,208.5 C 238.5,209.5 238.5,210.5 238.5,211.5C 231.789,220.923 226.123,230.923 221.5,241.5C 221.737,240.209 221.404,239.209 220.5,238.5C 221.428,234.638 222.928,230.971 225,227.5C 229.031,220.748 233.531,214.415 238.5,208.5 Z"/></g>
<g><path style="opacity:1" fill="#bfbfbf" d="M 412.5,230.5 C 411.89,231.391 411.557,232.391 411.5,233.5C 408.898,235.81 405.898,237.643 402.5,239C 383.09,243.647 364.423,241.814 346.5,233.5C 346.833,232.833 347.167,232.167 347.5,231.5C 359.084,235.883 371.084,238.217 383.5,238.5C 394.155,239.055 403.821,236.388 412.5,230.5 Z"/></g>
<g><path style="opacity:1" fill="#b3b3b3" d="M 231.5,206.5 C 231.328,207.492 231.662,208.158 232.5,208.5C 223.118,219.595 216.618,232.262 213,246.5C 212.501,250.152 212.335,253.818 212.5,257.5C 211.833,254.833 211.167,252.167 210.5,249.5C 212.445,232.612 219.445,218.279 231.5,206.5 Z"/></g>
<g><path style="opacity:0.996" fill="#b7b7b7" d="M 263.5,228.5 C 263.328,229.492 263.662,230.158 264.5,230.5C 262.298,236.438 260.298,242.438 258.5,248.5C 257.668,248.246 257.001,247.246 256.5,245.5C 258.597,239.651 260.931,233.985 263.5,228.5 Z"/></g>
<g><path style="opacity:1" fill="#b1b1b1" d="M 412.5,238.5 C 413.5,238.5 414.5,238.5 415.5,238.5C 410.629,243.602 404.629,246.602 397.5,247.5C 397.5,246.833 397.5,246.167 397.5,245.5C 402.546,243.48 407.546,241.147 412.5,238.5 Z"/></g>
<g><path style="opacity:1" fill="#a7a7a7" d="M 341.5,236.5 C 350.669,240.335 360.003,243.335 369.5,245.5C 367.585,245.216 365.919,245.549 364.5,246.5C 355.587,244.864 347.254,241.864 339.5,237.5C 340.492,237.672 341.158,237.338 341.5,236.5 Z"/></g>
<g><path style="opacity:1" fill="#bababa" d="M 369.5,245.5 C 378.833,245.5 388.167,245.5 397.5,245.5C 397.5,246.167 397.5,246.833 397.5,247.5C 386.436,250.107 375.436,249.774 364.5,246.5C 365.919,245.549 367.585,245.216 369.5,245.5 Z"/></g>
<g><path style="opacity:1" fill="#b6b6b6" d="M 336.5,240.5 C 345.472,245.486 354.805,249.486 364.5,252.5C 363.209,252.263 362.209,252.596 361.5,253.5C 351.885,251.187 342.885,247.521 334.5,242.5C 335.833,242.5 336.5,241.833 336.5,240.5 Z"/></g>
<g><path style="opacity:1" fill="#a9a9a9" d="M 401.5,251.5 C 401.833,252.167 402.167,252.833 402.5,253.5C 399.456,255.011 396.122,255.678 392.5,255.5C 390.393,254.532 388.059,254.198 385.5,254.5C 390.737,253.65 396.071,252.65 401.5,251.5 Z"/></g>
<g><path style="opacity:0.997" fill="#b8b8b8" d="M 420.5,245.5 C 418.461,250.378 415.127,254.212 410.5,257C 406.365,259.403 402.032,261.237 397.5,262.5C 396.081,261.549 394.415,261.216 392.5,261.5C 401.185,259.871 408.685,255.871 415,249.5C 416.094,247.922 416.928,246.255 417.5,244.5C 420.59,240.522 420.923,240.689 418.5,245C 419.094,245.464 419.761,245.631 420.5,245.5 Z"/></g>
<g><path style="opacity:0.997" fill="#bcbcbc" d="M 364.5,252.5 C 371.515,253.047 378.515,253.713 385.5,254.5C 388.059,254.198 390.393,254.532 392.5,255.5C 381.938,257.138 371.604,256.471 361.5,253.5C 362.209,252.596 363.209,252.263 364.5,252.5 Z"/></g>
<g><path style="opacity:0.51" fill="#838383" d="M 292.5,259.5 C 292.298,257.011 292.798,254.677 294,252.5C 294.167,253.667 294.333,254.833 294.5,256C 294.392,257.681 293.725,258.848 292.5,259.5 Z"/></g>
<g><path style="opacity:0.995" fill="#c3c3c3" d="M 326.5,245.5 C 327.833,245.5 329.167,245.5 330.5,245.5C 349.501,257.165 370.168,262.498 392.5,261.5C 394.415,261.216 396.081,261.549 397.5,262.5C 386.674,263.659 375.674,263.826 364.5,263C 350.843,259 338.177,253.167 326.5,245.5 Z"/></g>
<g><path style="opacity:0.541" fill="#6a6a6a" d="M 265.5,263.5 C 267.657,264.053 267.49,265.053 265,266.5C 264.53,265.423 264.697,264.423 265.5,263.5 Z"/></g>
<g><path style="opacity:0.533" fill="#6c6c6c" d="M 287.5,265.5 C 288.713,266.497 288.546,267.497 287,268.5C 286.53,267.423 286.697,266.423 287.5,265.5 Z"/></g>
<g><path style="opacity:0.999" fill="#ededed" d="M 114.5,294.5 C 118.188,294.781 121.855,295.281 125.5,296C 128.115,296.795 130.115,298.295 131.5,300.5C 130.723,303.534 129.389,306.2 127.5,308.5C 123.074,306.935 118.574,305.602 114,304.5C 109.999,305.884 110.166,307.718 114.5,310C 118.581,311.471 122.581,313.138 126.5,315C 131.685,319.947 132.851,325.781 130,332.5C 123.555,338.202 116.055,340.036 107.5,338C 102.599,336.949 98.5993,334.616 95.5,331C 96.6105,327.945 98.1105,325.112 100,322.5C 104.443,325.472 109.276,327.472 114.5,328.5C 116.333,327.948 118,327.115 119.5,326C 118.953,325.075 118.287,324.242 117.5,323.5C 110.519,321.594 104.352,318.261 99,313.5C 96.5766,301.083 101.743,294.75 114.5,294.5 Z"/></g>
<g><path style="opacity:0.999" fill="#eeeeee" d="M 150.5,294.5 C 154.95,294.421 159.283,295.088 163.5,296.5C 169.632,309.904 174.966,323.571 179.5,337.5C 175.163,339.081 170.997,338.748 167,336.5C 166.598,335.128 166.098,333.795 165.5,332.5C 159.528,331.336 153.528,331.17 147.5,332C 144.865,338.237 140.365,340.07 134,337.5C 133.333,335.833 133.333,334.167 134,332.5C 139.787,319.929 145.287,307.262 150.5,294.5 Z M 155.5,309.5 C 157.648,312.462 159.314,315.795 160.5,319.5C 158.337,321.72 155.837,322.053 153,320.5C 153.298,316.759 154.131,313.092 155.5,309.5 Z"/></g>
<g><path style="opacity:0.999" fill="#f0f0f0" d="M 195.5,307.5 C 195.343,308.873 195.51,310.207 196,311.5C 196.717,310.956 197.217,310.289 197.5,309.5C 201.375,304.938 205.375,300.438 209.5,296C 214.11,294.27 218.776,294.27 223.5,296C 218.5,301.667 213.5,307.333 208.5,313C 213.697,320.699 218.697,328.533 223.5,336.5C 219.292,338.751 214.958,338.918 210.5,337C 207.182,332.185 203.515,327.685 199.5,323.5C 198.522,323.977 197.689,324.643 197,325.5C 196.265,329.813 195.765,334.147 195.5,338.5C 191.5,338.5 187.5,338.5 183.5,338.5C 183.5,323.833 183.5,309.167 183.5,294.5C 187.519,294.646 191.519,294.979 195.5,295.5C 195.5,299.5 195.5,303.5 195.5,307.5 Z"/></g>
<g><path style="opacity:0.49" fill="#7c7c7c" d="M 239.5,295.5 C 236.167,295.5 232.833,295.5 229.5,295.5C 229.5,309.5 229.5,323.5 229.5,337.5C 232.833,337.5 236.167,337.5 239.5,337.5C 236.038,338.482 232.371,338.815 228.5,338.5C 228.5,323.833 228.5,309.167 228.5,294.5C 232.371,294.185 236.038,294.518 239.5,295.5 Z"/></g>
<g><path style="opacity:0.999" fill="#f3f3f3" d="M 239.5,295.5 C 239.5,295.833 239.5,296.167 239.5,296.5C 239.5,301.833 239.5,307.167 239.5,312.5C 245.167,312.5 250.833,312.5 256.5,312.5C 257.489,307.025 257.822,301.358 257.5,295.5C 260.833,295.5 264.167,295.5 267.5,295.5C 268.661,308.994 268.827,322.66 268,336.5C 266.475,337.72 264.641,338.387 262.5,338.5C 260.631,338.493 258.964,338.16 257.5,337.5C 257.5,332.167 257.5,326.833 257.5,321.5C 251.5,321.5 245.5,321.5 239.5,321.5C 239.5,326.5 239.5,331.5 239.5,336.5C 239.5,336.833 239.5,337.167 239.5,337.5C 236.167,337.5 232.833,337.5 229.5,337.5C 229.5,323.5 229.5,309.5 229.5,295.5C 232.833,295.5 236.167,295.5 239.5,295.5 Z"/></g>
<g><path style="opacity:0.479" fill="#848484" d="M 267.5,295.5 C 264.167,295.5 260.833,295.5 257.5,295.5C 257.822,301.358 257.489,307.025 256.5,312.5C 256.5,312.167 256.5,311.833 256.5,311.5C 256.5,305.833 256.5,300.167 256.5,294.5C 260.371,294.185 264.038,294.518 267.5,295.5 Z"/></g>
<g><path style="opacity:0.999" fill="#eeeeee" d="M 289.5,294.5 C 293.825,294.379 297.991,295.046 302,296.5C 308.073,309.973 313.573,323.639 318.5,337.5C 315.201,338.376 311.868,338.543 308.5,338C 306.14,336.635 304.473,334.635 303.5,332C 297.833,331.333 292.167,331.333 286.5,332C 283.763,338.288 279.097,340.121 272.5,337.5C 271.417,336.635 271.251,335.635 272,334.5C 277.743,321.096 283.576,307.763 289.5,294.5 Z M 298.5,317.5 C 298.567,318.959 298.234,320.292 297.5,321.5C 295.5,321.5 293.5,321.5 291.5,321.5C 291.548,317.187 292.715,313.187 295,309.5C 296.454,312.071 297.62,314.738 298.5,317.5 Z"/></g>
<g><path style="opacity:0.999" fill="#ececec" d="M 319.5,294.5 C 323.167,294.5 326.833,294.5 330.5,294.5C 332.531,303.625 335.031,312.625 338,321.5C 340.501,312.828 343.001,304.161 345.5,295.5C 349.18,294.236 352.847,294.236 356.5,295.5C 359.331,304.151 362.164,312.818 365,321.5C 367.333,313.167 369.667,304.833 372,296.5C 375.608,294.839 379.275,294.505 383,295.5C 383.667,296.833 383.667,298.167 383,299.5C 378.857,312.095 375.023,324.762 371.5,337.5C 366.849,337.679 362.349,337.679 358,337.5C 355.87,328.776 353.536,320.11 351,311.5C 348.81,320.262 346.31,328.929 343.5,337.5C 339.297,337.726 334.964,337.726 330.5,337.5C 327.135,325.046 323.302,312.713 319,300.5C 318.322,298.402 318.489,296.402 319.5,294.5 Z"/></g>
<g><path style="opacity:1" fill="#f0f0f0" d="M 429.5,335.5 C 427.012,337.388 424.012,338.055 420.5,337.5C 417.759,336.561 415.759,334.727 414.5,332C 409.167,331.333 403.833,331.333 398.5,332C 397.241,334.727 395.241,336.561 392.5,337.5C 388.988,338.055 385.988,337.388 383.5,335.5C 388.702,322.402 394.202,309.402 400,296.5C 404.187,294.315 408.52,293.981 413,295.5C 418.789,308.74 424.289,322.074 429.5,335.5 Z M 405.5,310.5 C 406.75,310.577 407.583,311.244 408,312.5C 409.43,315.353 410.263,318.353 410.5,321.5C 407.833,321.5 405.167,321.5 402.5,321.5C 402.892,317.658 403.892,313.991 405.5,310.5 Z"/></g>
<g><path style="opacity:0.999" fill="#f2f2f2" d="M 442.5,307.5 C 442.5,306.167 442.5,304.833 442.5,303.5C 438.5,303.5 434.5,303.5 430.5,303.5C 430.5,300.5 430.5,297.5 430.5,294.5C 442.5,294.5 454.5,294.5 466.5,294.5C 466.784,297.777 466.451,300.943 465.5,304C 461.848,304.499 458.182,304.665 454.5,304.5C 454.5,315.833 454.5,327.167 454.5,338.5C 450.5,338.5 446.5,338.5 442.5,338.5C 442.221,328.235 442.221,317.902 442.5,307.5 Z"/></g>
<g><path style="opacity:0.695" fill="#9a9a9a" d="M 430.5,303.5 C 434.5,303.5 438.5,303.5 442.5,303.5C 442.5,304.833 442.5,306.167 442.5,307.5C 441.596,306.791 441.263,305.791 441.5,304.5C 437.629,304.815 433.962,304.482 430.5,303.5 Z"/></g>
<g><path style="opacity:0.157" fill="#313131" d="M 195.5,307.5 C 196.167,308.167 196.833,308.833 197.5,309.5C 197.217,310.289 196.717,310.956 196,311.5C 195.51,310.207 195.343,308.873 195.5,307.5 Z"/></g>
<g><path style="opacity:0.176" fill="#363636" d="M 239.5,296.5 C 240.487,301.305 240.821,306.305 240.5,311.5C 245.833,311.5 251.167,311.5 256.5,311.5C 256.5,311.833 256.5,312.167 256.5,312.5C 250.833,312.5 245.167,312.5 239.5,312.5C 239.5,307.167 239.5,301.833 239.5,296.5 Z"/></g>
<g><path style="opacity:0.553" fill="#585858" d="M 298.5,317.5 C 299.124,317.917 299.457,318.584 299.5,319.5C 299.253,320.713 298.586,321.38 297.5,321.5C 298.234,320.292 298.567,318.959 298.5,317.5 Z"/></g>
<g><path style="opacity:0.05" fill="#424242" d="M 257.5,337.5 C 256.513,332.695 256.179,327.695 256.5,322.5C 251.167,322.5 245.833,322.5 240.5,322.5C 240.819,327.363 240.486,332.03 239.5,336.5C 239.5,331.5 239.5,326.5 239.5,321.5C 245.5,321.5 251.5,321.5 257.5,321.5C 257.5,326.833 257.5,332.167 257.5,337.5 Z"/></g>
<g><path style="opacity:0.153" fill="#414141" d="M 383.5,335.5 C 385.988,337.388 388.988,338.055 392.5,337.5C 389.375,338.479 386.042,338.813 382.5,338.5C 382.263,337.209 382.596,336.209 383.5,335.5 Z"/></g>
<g><path style="opacity:0.115" fill="#444444" d="M 429.5,335.5 C 430.404,336.209 430.737,337.209 430.5,338.5C 426.958,338.813 423.625,338.479 420.5,337.5C 424.012,338.055 427.012,337.388 429.5,335.5 Z"/></g>
</svg>
